<?xml version="1.0" standalone="no"?>
<!DOCTYPE svg PUBLIC "-//W3C//DTD SVG 1.1//EN" "http://www.w3.org/Graphics/SVG/1.1/DTD/svg11.dtd" >
<svg xmlns="http://www.w3.org/2000/svg">
<metadata>
This is a custom SVG webfont generated by Font Squirrel.
Copyright   :  2007 Microsoft Corporation All Rights Reserved
Designer    : John HudsonGeraldine Wade
Foundry     : Tiro Typeworks
Foundry URL : httpwwwtirocom
</metadata>
<defs>
<font id="SylfaenRegular" horiz-adv-x="1024" >
<font-face units-per-em="2048" ascent="1638" descent="-410" />
<missing-glyph horiz-adv-x="512" />
<glyph unicode=" "  horiz-adv-x="512" />
<glyph unicode="&#x09;" horiz-adv-x="512" />
<glyph unicode="&#xa0;" horiz-adv-x="512" />
<glyph unicode="!" horiz-adv-x="543" d="M164 1368q-1 10 10 10h215q11 0 10 -10l-80 -1026q-1 -10 -10 -10h-55q-9 0 -10 10zM170 82q0 45 33 79t78 34t78.5 -34.5t33.5 -78.5t-34 -77.5t-78 -33.5q-45 0 -78 33.5t-33 77.5z" />
<glyph unicode="&#x22;" horiz-adv-x="713" d="M143 1399q0 10 9 10h143q10 0 10 -10l-45 -477q0 -11 -10 -11h-53q-11 0 -11 11zM408 1399q0 10 8 10h143q10 0 10 -10l-45 -477q0 -11 -10 -11h-53q-10 0 -10 11z" />
<glyph unicode="#" d="M33 401l18 93v-5q0 5 3 7t7 2h220l53 282h-211q-4 0 -8 4t-2 9l18 88q0 4 3 6t7 2h213l74 381q0 4 3 6t7 2h68q6 0 9 -3t1 -9l-74 -377h232l74 381q0 4 4 6t6 2h67q4 0 8.5 -3t2.5 -9l-74 -377h219q4 0 8 -3t2 -9l-18 -89q0 -4 -3 -6t-7 -2h-222l-53 -282h213q4 0 8 -4.5 t2 -8.5l-18 -88q0 -4 -3 -6t-7 -2h-215l-72 -381q0 -4 -3 -6t-7 -2h-68q-6 0 -9 3t-1 9l72 377h-232l-72 -381q0 -4 -4 -6t-6 -2h-67q-4 0 -8.5 3t-2.5 9l72 377h-217q-4 0 -8 3t-2 9zM369 498h231l53 282h-231z" />
<glyph unicode="$" d="M87 967q0 80 29.5 143.5t80 111.5t117 76.5t140.5 40.5v164q0 10 10 10h73q11 0 11 -10v-157q35 0 73.5 -4.5t78.5 -11.5t78 -14t69 -16q4 -2 7 -4t3 -10v-295q0 -6 -3 -10t-7 -4h-78q-2 0 -6 3t-4 9l-41 219l-2 1q-2 1 -6 1q-29 15 -73 25t-89 14v-477l75 -33 q66 -28 124.5 -62t100.5 -76t65.5 -96t23.5 -126q0 -88 -31 -156.5t-83 -119t-122.5 -81t-152.5 -42.5v-164q0 -11 -11 -11h-73q-10 0 -10 11v155h-25q-82 0 -166 14.5t-154 34.5q-4 3 -7 5t-3 10v295q0 6 3 10t7 4h80q2 0 6.5 -3t4.5 -9l36 -217q0 -2 9 -6q20 -11 45.5 -17 t53.5 -11t55.5 -7t49.5 -2h5v522l-54 24q-63 27 -120.5 59t-99.5 74t-67.5 94t-25.5 122zM261 1042q0 -41 14.5 -74.5t40 -61t60.5 -50t78 -43.5v430q-39 -8 -74 -24.5t-61.5 -42t-42 -59.5t-15.5 -75zM548 82q43 8 81 26.5t65.5 46t44 64.5t16.5 82q0 47 -16.5 85 t-45.5 67.5t-65.5 53t-79.5 44.5v-469z" />
<glyph unicode="%" horiz-adv-x="1720" d="M35 973q0 94 25.5 174t70.5 138t109.5 91t142.5 33q82 0 144.5 -30.5t106.5 -86t66.5 -133.5t22.5 -172t-24.5 -174t-70.5 -138.5t-110.5 -91t-144.5 -32.5t-142.5 30.5t-106.5 87t-66.5 133.5t-22.5 171zM190 985q0 -74 13.5 -137.5t38 -110.5t61.5 -73.5t82 -26.5 q43 0 78 24.5t57.5 69.5t34.5 106.5t12 135.5t-13 137.5t-37.5 111.5t-58.5 74.5t-77 26.5q-45 0 -81 -24.5t-60.5 -68.5t-37 -106.5t-12.5 -138.5zM426 14l799 1403q8 10 16 4l53 -32q9 -9 2 -15l-798 -1403q-2 -6 -7.5 -7t-7.5 1l-55 33q-8 6 -2 16zM996 393q0 94 25 173 t71 138.5t110.5 92t142.5 32.5q81 0 143.5 -30.5t106.5 -87t67 -133t23 -170.5q0 -95 -25 -174.5t-71 -138t-111.5 -91.5t-143.5 -33q-82 0 -144.5 31t-105.5 86t-65.5 133t-22.5 172zM1152 406q0 -74 13.5 -137.5t39 -110.5t61.5 -74t81 -27q43 0 76.5 24.5t57 70t36 106.5 t12.5 135t-13.5 138.5t-38 110.5t-59.5 73.5t-76 27.5q-47 0 -81.5 -24.5t-59 -69.5t-37 -106.5t-12.5 -136.5z" />
<glyph unicode="&#x26;" horiz-adv-x="1497" d="M72 336q0 137 73.5 243.5t227.5 192.5q-41 47 -69 86t-45 76t-24.5 75t-7.5 81q0 69 26 127.5t73 101.5t110.5 66.5t138.5 23.5q70 0 127.5 -21.5t98.5 -57.5t62.5 -84t21.5 -103q0 -43 -11.5 -88t-42 -90t-86 -88t-143.5 -84l365 -385q26 41 50.5 91t42 101t30 100.5 t16.5 87.5q0 15 -14 15l-150 12q-10 0 -10 10v54q0 10 10 10h438q11 0 11 -10v-54q0 -10 -11 -10l-166 -12q-12 -2 -14 -6t-2 -9q-4 -43 -17.5 -98t-36 -115.5t-50 -123t-60.5 -115.5l232 -242q4 -4 10 -4l170 -16q10 0 10 -11v-53q0 -10 -10 -10h-330q-6 0 -10 4l-176 182 q-39 -45 -81 -84t-94.5 -68.5t-119 -46t-154.5 -16.5t-161.5 29t-129 78t-87 115.5t-31.5 142.5zM256 420q0 -72 24.5 -130.5t68.5 -99t102.5 -63.5t123.5 -23q76 0 151 36t134 116l-428 451q-39 -23 -70.5 -54.5t-55 -70.5t-37 -80t-13.5 -82zM385 1153q0 -74 42 -144.5 t118 -150.5q94 47 140 112.5t46 151.5q0 92 -50 142.5t-140 50.5q-31 0 -59.5 -11.5t-50 -32t-34 -50t-12.5 -68.5z" />
<glyph unicode="'" horiz-adv-x="449" d="M143 1399q0 10 9 10h143q10 0 10 -10l-45 -477q0 -11 -10 -11h-53q-11 0 -11 11z" />
<glyph unicode="(" horiz-adv-x="670" d="M123 524q0 218 80 434q51 139 123 245q77 114 145 182q35 34 70 65q3 2 7 2q5 0 9 -2l47 -33q3 -4 3 -9q0 -4 -3 -9q-189 -193 -270 -451q-64 -204 -64 -424q0 -394 177 -673q69 -109 157 -201q4 -5 4 -10t-4 -9l-47 -32q-4 -5 -9 -4l-4 2q-2 1 -3 2q-79 68 -143 146 q-81 99 -142 222q-133 268 -133 557z" />
<glyph unicode=")" horiz-adv-x="670" d="M62 -360q0 6 5 10q190 200 269 450q63 200 63 424q0 394 -175 674q-69 109 -158 201q-9 10 0 18l47 33q6 2 10 2t6 -2q89 -79 143 -147q91 -118 142 -222q92 -189 123 -407q10 -76 10 -150q0 -284 -133 -557q-84 -172 -215 -303q-35 -35 -70 -65l-6 -4q-4 -1 -10 4 l-46 32q-5 2 -5 9z" />
<glyph unicode="*" horiz-adv-x="639" d="M55 1012q-8 10 4 14l203 78l-203 78q-12 4 -4 14l51 90q5 6 10 6q4 -1 7 -4l168 -135l-33 213q0 12 10 12h103q10 0 10 -12l-33 -213l168 135q3 2 8 2q5 -1 8 -4l52 -90q8 -10 -4 -14l-203 -78l203 -78q12 -4 4 -14l-52 -90q-4 -4 -9 -5q-5 -2 -7 3l-168 135l33 -213 q0 -13 -10 -13h-103q-10 0 -10 13l33 213l-168 -135q-2 -5 -7 -3q-5 1 -10 5z" />
<glyph unicode="+" d="M61 434v74q0 10 11 10h389v414q0 10 10 10h82q10 0 10 -10v-414h389q11 0 11 -10v-74q0 -10 -11 -10h-389v-414q0 -10 -10 -10h-82q-10 0 -10 10v414h-389q-11 0 -11 10z" />
<glyph unicode="," horiz-adv-x="512" d="M125 -203q1 4 4 6q144 68 144 170q0 113 -117 113q-29 29 -29 66q0 90 97 90q66 0 118 -49q56 -55 56 -150q0 -193 -242 -295q-6 -4 -10 4l-19 41q-2 3 -2 4z" />
<glyph unicode="-" horiz-adv-x="776" d="M102 485v86q0 11 11 11h551q10 0 10 -11v-86q0 -10 -10 -10h-551q-11 0 -11 10z" />
<glyph unicode="." horiz-adv-x="512" d="M138 88q0 50 34 84.5t83 34.5q79 0 109 -72q9 -22 9 -47q0 -48 -35 -81q-38 -36 -83 -36q-48 0 -82.5 34.5t-34.5 82.5z" />
<glyph unicode="/" horiz-adv-x="635" d="M-16 -88l553 1526q3 9 14 6l76 -25q10 -3 6 -14l-553 -1526q-2 -10 -14 -6l-76 25q-10 3 -6 14z" />
<glyph unicode="0" d="M57 668q0 345 120 539q124 202 353 202q228 0 332.5 -181t104.5 -517q0 -346 -119 -539q-126 -203 -354 -203q-227 0 -334 183q-103 173 -103 516zM252 705q0 -293 72 -467q72 -177 200 -177q127 0 187.5 160t60.5 453t-72 468t-200 175q-127 0 -187.5 -160t-60.5 -452z " />
<glyph unicode="1" d="M195 1241q0 2 2 4l4 4l344 140q8 2 10 2h55q8 0 8 -9v-1284q0 -11 13 -12l174 -14q8 -1 8 -9v-55q0 -8 -8 -8h-557q-8 0 -8 8v55q0 8 8 9l184 14q4 0 8 3t4 9v1098q0 12 -10 12l-217 -28q-5 1 -8 8z" />
<glyph unicode="2" d="M45 62q0 4 4 6q292 251 475 505q57 80 103.5 200.5t46.5 230.5q0 125 -65 209q-70 92 -189 92q-86 0 -160 -37q-9 -2 -12 -19l-33 -207q0 -6 -8 -6h-84q-8 0 -8 8v273q0 8 8 14q58 35 171 60q85 18 185 18q177 0 287 -86q123 -96 123 -252q0 -121 -62 -267 q-50 -116 -131 -224q-131 -174 -395 -414h623q8 0 8 -8v-150q0 -8 -8 -8h-840q-2 0 -3 1l-3 3l-31 51q-2 3 -2 7z" />
<glyph unicode="3" d="M84 33v311q0 8 8 8h82q8 -2 8 -6l41 -233q0 -10 10 -13q71 -34 193 -34q139 0 224 82q83 79 83 227t-93 228.5t-251 80.5q-44 0 -78 -4q-8 0 -8 8v80q0 6 8 6q156 0 249 81q97 84 97 220q0 111 -63 172.5t-170 61.5q-71 0 -186 -41q-10 -4 -15 -19l-28 -209q0 -8 -11 -8 h-73q-9 0 -9 8v295q0 6 9 11q187 63 344 63q167 0 274 -66q129 -81 129 -235q0 -101 -67 -188.5t-175 -131.5q155 -28 247.5 -130t92.5 -238q0 -211 -167 -335q-155 -114 -363 -114q-103 0 -258 34q-41 9 -76 20q-8 4 -8 8z" />
<glyph unicode="4" d="M41 422q-2 6 0 10l670 963q4 4 6 4l61 -8q8 0 8 -9v-845q0 -13 13 -13h182q8 0 8 -8v-131q0 -8 -8 -8h-182q-13 0 -13 -12v-267q0 -12 13 -12l135 -14q8 0 8 -9v-55q0 -8 -8 -8h-481q-9 0 -9 8v55q0 9 9 9l147 14q12 0 12 12v267q0 12 -12 12h-537q-4 0 -4 1t-2 3z M217 524h383q12 0 12 13v571z" />
<glyph unicode="5" d="M44 75q-1 3 1 5l41 59q2 2 5 3q4 0 9 -3q72 -47 185 -64q32 -5 63 -5q153 0 253.5 98.5t100.5 249.5q0 146 -96.5 236.5t-251.5 90.5q-95 0 -215 -32q-16 -4 -16 8v649q0 8 10 8h674q8 0 8 -8v-158q0 -8 -8 -8h-559q-15 0 -15 -14v-291l5 4q86 19 184 19q211 0 347 -121 t136 -320q0 -220 -158 -365t-391 -145q-72 0 -162 24t-143 71q-5 5 -7 9z" />
<glyph unicode="6" d="M61 494q0 373 244 649q209 237 551 272q12 0 12 -8l13 -66q0 -9 -15 -12q-208 -39 -334 -141q-52 -42 -90 -96q-87 -126 -137 -297q127 67 248 67q195 0 313.5 -118.5t118.5 -307.5q0 -201 -125 -330q-131 -135 -336 -135q-220 0 -346 160q-117 147 -117 363zM264 475 q0 -84 29 -175q50 -157 162 -210q41 -20 90 -20q119 0 181 100q50 80 50 219q0 162 -65 249q-75 99 -230 99q-39 0 -105 -13q-47 -9 -87 -34q-25 -133 -25 -215z" />
<glyph unicode="7" d="M72 1061v309q0 8 8 8h844q5 -1 8 -4l29 -43q2 -4 4 -5q1 -2 -2 -7l-564 -1323q-6 -6 -8 -6h-196q-9 0 -9 8q0 3 2 6l623 1217h-602q-14 0 -14 -13l-27 -147q0 -6 -12 -6h-76q-8 0 -8 6z" />
<glyph unicode="8" d="M63 319q0 134 78 228q75 90 217 158q-128 69 -191 149t-63 201q0 166 123 264q112 90 295 90q159 0 265 -84q110 -88 110 -231q0 -222 -248 -351q164 -80 234 -165q78 -96 78 -226q0 -131 -84 -227q-77 -88 -206 -128q-85 -26 -177 -26q-178 0 -300 93q-131 98 -131 255z M266 336q0 -178 138 -240q47 -22 108 -22q161 0 216 148q17 46 17 102q0 162 -172 266q-55 33 -118 63q-89 -40 -140 -129q-49 -85 -49 -188zM311 1096q0 -111 61 -179q50 -57 177 -120h14q150 85 150 282q0 104 -56.5 168t-156.5 64q-89 0 -139 -62.5t-50 -152.5z" />
<glyph unicode="9" d="M53 944q0 143 70 258.5t197 170.5q83 36 186 36q215 0 339 -158q113 -146 113 -364q0 -368 -237 -649q-197 -233 -541 -271q-12 0 -12 8l-10 66q0 5 14 12q210 45 324 141q53 44 88 95q28 40 69 124q35 70 64 171q-113 -66 -240 -66q-191 0 -307.5 118.5t-116.5 307.5z M262 991q0 -160 65 -249q72 -99 220 -99q82 0 149 28q21 9 37 19l16 114q7 56 7 114q0 100 -37 194q-41 103 -114 160q-50 39 -120 39q-114 0 -173 -101q-50 -84 -50 -219z" />
<glyph unicode=":" horiz-adv-x="512" d="M138 88q0 50 34 84.5t83 34.5q79 0 109 -72q9 -22 9 -47q0 -48 -35 -81q-38 -36 -83 -36q-48 0 -82.5 34.5t-34.5 82.5zM138 770q0 50 34 84.5t83 34.5q79 0 109 -72q9 -22 9 -47q0 -48 -35 -81q-38 -36 -83 -36q-48 0 -82.5 34.5t-34.5 82.5z" />
<glyph unicode=";" horiz-adv-x="512" d="M133 -203q1 4 4 6q144 68 144 170q0 113 -117 113q-29 29 -29 66q0 90 97 90q67 0 117 -49q57 -58 57 -150q0 -193 -242 -295q-6 -4 -10 4l-19 41q-2 3 -2 4zM154 770q0 50 34 84.5t83 34.5q79 0 109 -72q9 -22 9 -47q0 -48 -35 -81q-38 -36 -83 -36q-48 0 -82.5 34.5 t-34.5 82.5z" />
<glyph unicode="&#x37e;" horiz-adv-x="512" d="M133 -203q1 4 4 6q144 68 144 170q0 113 -117 113q-29 29 -29 66q0 90 97 90q67 0 117 -49q57 -58 57 -150q0 -193 -242 -295q-6 -4 -10 4l-19 41q-2 3 -2 4zM154 770q0 50 34 84.5t83 34.5q79 0 109 -72q9 -22 9 -47q0 -48 -35 -81q-38 -36 -83 -36q-48 0 -82.5 34.5 t-34.5 82.5z" />
<glyph unicode="&#x3c;" d="M106 438v66q0 4 7 8l739 393q4 2 9 0t5 -8v-82q0 -4 -6 -8l-641 -336l641 -336q6 -4 6 -8v-82q0 -6 -5 -8t-9 0l-739 393q-7 2 -7 8z" />
<glyph unicode="=" d="M61 281v73q0 11 11 11h880q11 0 11 -11v-73q0 -11 -11 -11h-880q-11 0 -11 11zM61 598v74q0 10 11 10h880q11 0 11 -10v-74q0 -10 -11 -10h-880q-11 0 -11 10z" />
<glyph unicode="&#x3e;" d="M158 45v82q0 4 6 8l641 336l-641 336q-6 4 -6 8v82q0 6 5 8t9 0l739 -393q7 -4 7 -8v-66q0 -6 -7 -8l-739 -393q-4 -2 -9 0t-5 8z" />
<glyph unicode="?" horiz-adv-x="801" d="M82 1120v228q0 8 11 10q115 41 201 48q34 3 75 3q155 0 250 -72q109 -82 109 -231q0 -81 -48 -164q-33 -55 -111 -140q-84 -93 -114 -138q-90 -136 -90 -320q0 -12 -16 -12h-52q-16 0 -16 12q-4 28 -4 55q0 116 26 197q35 115 124 234q65 88 94 159q16 41 16 82 q0 120 -61 184q-59 60 -156 60q-59 0 -115 -27q-8 -4 -10 -16l-29 -152q0 -8 -10 -8h-63q-11 0 -11 8zM213 82q0 43 34 78t77 35q44 0 78.5 -34.5t34.5 -78.5t-34.5 -77.5t-78.5 -33.5q-68 0 -101 69q-10 19 -10 42z" />
<glyph unicode="@" horiz-adv-x="1731" d="M82 379q0 253 118 460q113 199 309.5 316t422.5 117q196 0 350 -73q259 -123 339 -398q28 -96 28 -215q0 -247 -147 -430q-95 -119 -213 -163q-62 -22 -128 -22q-65 0 -105 41q-49 48 -63 135q-109 -109 -187 -148q-56 -28 -104 -28q-87 0 -151 61q-58 55 -80 143 q-14 56 -14 112q0 151 67 297q69 152 186 242q123 96 248 96q61 0 138 -37l71 28q2 0 3 1t4 1l43 -10q6 -2 6 -4v-6l-74 -657q-4 -36 0 -68q7 -58 46 -83q17 -11 38 -11q22 0 48 11q31 13 48 30q38 24 75 76q68 94 94 235q13 70 13 143q0 282 -166 450q-160 161 -423 161 q-222 0 -384 -125q-142 -110 -219 -297q-71 -171 -71 -357q0 -343 197 -530q179 -171 462 -174q160 -2 290 43q52 18 99 51q3 2 8 1t7 -3l26 -41q2 -6 1 -10t-3 -6q-77 -70 -231 -105q-129 -28 -238 -28q-277 0 -477 138q-208 143 -277 401q-30 108 -30 239zM633 324 q0 -95 26 -151q36 -79 99 -79q33 0 71 25q64 41 168 135l64 520q-30 66 -105 66q-96 0 -175 -83q-68 -72 -109 -200q-39 -119 -39 -233z" />
<glyph unicode="A" horiz-adv-x="1454" d="M0 10v53q0 11 10 11l168 16q5 1 8 6l521 1311q4 6 8 6h51q5 -1 8 -6l479 -1309q2 -6 9 -6l163 -18q9 0 9 -11v-53q0 -10 -11 -10h-526q-10 0 -10 10v53q0 11 10 11l160 16q6 0 8 4t0 10l-152 402q-4 6 -8 6h-446q-5 -1 -8 -6l-162 -406q-5 -13 10 -14l154 -12 q10 -1 10 -11v-53q0 -10 -10 -10h-443q-10 0 -10 10zM489 612q-2 -4 -2 -7q0 -7 11 -7h370q12 0 12 8q0 3 -1 6l-181 490q-4 6 -8 6q-6 0 -8 -6z" />
<glyph unicode="B" horiz-adv-x="1233" d="M76 10v53q0 11 10 11l174 16q10 0 10 10v1178q0 10 -10 10l-174 17q-10 0 -10 10v53q0 10 10 10h477q253 0 359 -57q73 -39 108 -95q43 -70 43 -163q0 -216 -250 -305q143 -31 236 -126q102 -103 102 -243q0 -113 -65 -209q-122 -180 -486 -180h-524q-10 0 -10 10z M449 104q0 -10 10 -10h129q368 0 368 277q0 327 -407 327h-90q-10 0 -10 -10v-584zM449 786q0 -10 10 -10h63q167 0 252 51q113 68 113 213q0 120 -81 181q-75 56 -191 60l-78 3h-78q-10 0 -10 -10v-488z" />
<glyph unicode="C" horiz-adv-x="1325" d="M78 686q0 115 28.5 213t81 179t124 142.5t157.5 103.5t185.5 63.5t203.5 21.5q37 0 84 -5t95 -12.5t94.5 -16.5t80.5 -15q11 -2 11 -10v-310q0 -10 -11 -10h-79q-5 0 -8 2t-3 6l-41 230q0 6 -8 10q-18 4 -46 11t-57.5 13.5t-61 10.5t-60.5 4q-137 0 -243.5 -42 t-179.5 -119t-111 -184.5t-38 -236.5q0 -135 40 -256t114 -213t178.5 -145t231.5 -53q22 0 54 2t63.5 6t62.5 10t53 18q8 5 8 11l41 231q0 2 3 5t8 3h79q11 0 11 -10v-309q0 -6 -11 -10q-34 -9 -75 -18t-89.5 -17t-104.5 -13.5t-124 -5.5q-112 0 -210.5 24.5t-181.5 71 t-147.5 111t-108.5 143t-68.5 172t-24.5 193.5z" />
<glyph unicode="D" horiz-adv-x="1483" d="M76 10v62q0 10 10 10l174 16q10 0 10 11v1161q0 10 -10 10l-174 16q-10 0 -10 11v61q0 10 10 10h551q354 0 552 -161q216 -175 216 -521q0 -696 -799 -696h-520q-10 0 -10 10zM449 104q0 -10 10 -10h145q309 0 449 109q157 124 157 424q0 657 -573 657h-178 q-10 0 -10 -10v-1170z" />
<glyph unicode="E" horiz-adv-x="1196" d="M76 10v53q0 11 10 11l174 16q10 0 10 10v1182q-4 6 -10 6l-174 17q-10 0 -10 10v53q0 10 10 10h979q10 0 10 -10v-321q0 -11 -10 -11h-76q-10 0 -10 8l-41 232q0 8 -10 8h-469q-10 0 -10 -10v-506q0 -10 10 -10h282q11 0 11 8l20 166q0 8 10 8h56q10 0 10 -10v-445 q0 -10 -10 -10h-56q-10 0 -10 8l-20 176q0 9 -11 9h-282q-10 0 -10 -11v-553q0 -10 10 -10h497q11 0 11 8l41 228q0 8 10 8h76q10 0 10 -10v-318q0 -10 -10 -10h-1008q-10 0 -10 10z" />
<glyph unicode="F" horiz-adv-x="1096" d="M76 10v53q0 11 10 11l174 16q10 0 10 10v1182q-2 6 -6 6h-4l-174 17q-10 0 -10 10v53q0 10 8 10h960q11 0 11 -10v-321q0 -11 -11 -11h-75q-11 0 -11 8l-40 232q0 8 -11 8h-448q-10 0 -10 -10v-537q0 -8 10 -8h270q10 0 10 8l21 166q0 8 10 8h55q11 0 11 -10v-436 q0 -10 -11 -10h-55q-10 0 -10 8l-21 168q0 8 -10 8h-270q-10 0 -10 -8v-531q0 -10 10 -10l174 -16q10 0 10 -11v-53q0 -10 -10 -10h-547q-10 0 -10 10z" />
<glyph unicode="G" horiz-adv-x="1450" d="M78 686q0 215 107 383.5t302 258.5q176 81 381 81q107 0 277 -34q25 -5 80 -15q10 -2 10 -10v-310q0 -10 -10 -10h-80q-10 0 -10 8l-41 230q0 6 -9 10q-176 39 -231 39q-269 0 -423.5 -156.5t-154.5 -425.5q0 -272 149 -464q162 -208 427 -208q75 0 205 27v414 q0 10 -10 10l-175 16q-10 0 -10 13v49q0 12 12 12h523q12 0 12 -12v-49q0 -13 -10 -13l-154 -16q-8 0 -10 -6v-477q0 -6 -10 -11q-214 -49 -400 -49q-322 0 -532 196q-215 200 -215 519z" />
<glyph unicode="H" horiz-adv-x="1561" d="M76 10v53q0 11 10 11l174 16q10 0 10 10v1178q0 10 -10 10l-174 17q-10 0 -10 10v53q0 10 10 10h537q10 0 10 -10v-53q0 -10 -10 -10l-164 -17q-10 0 -10 -10v-496q0 -6 3 -6h658q2 2 2 6v496q0 10 -10 10l-164 17q-10 0 -10 10v53q0 10 10 10h537q10 0 10 -10v-53 q0 -10 -10 -10l-175 -17q-10 0 -10 -10v-1178q0 -10 10 -10l175 -16q10 0 10 -11v-53q0 -10 -10 -10h-537q-10 0 -10 10v53q0 11 10 11l164 16q10 0 10 10v572q0 10 -10 10h-643q-10 0 -10 -10v-572q0 -10 10 -10l164 -16q10 0 10 -11v-53q0 -10 -10 -10h-537q-10 0 -10 10z " />
<glyph unicode="I" horiz-adv-x="723" d="M76 10v53q0 11 10 11l174 16q10 0 10 10v1178q0 10 -10 10l-174 17q-10 0 -10 10v53q0 10 10 10h551q10 0 10 -10v-53q0 -10 -10 -10l-174 -17q-10 0 -10 -10v-1178q0 -10 10 -10l174 -16q10 0 10 -11v-53q0 -10 -10 -10h-551q-10 0 -10 10z" />
<glyph unicode="J" horiz-adv-x="662" d="M20 -326q-1 3 -1 6q0 4 4 7q102 64 142 112q74 89 88 268q5 64 5 150v1061q0 10 -10 10l-174 17q-11 0 -11 10v53q0 10 11 10h542q1 2 2 2q9 0 9 -12v-53q0 -10 -11 -10l-174 -17q-10 0 -10 -10v-1051q0 -216 -59 -344q-80 -173 -316 -264q-7 0 -10 8l-24 41z" />
<glyph unicode="K" horiz-adv-x="1366" d="M86 10v53q0 11 10 11l164 16q10 0 10 10v1178q0 10 -10 10l-164 17q-10 0 -10 10v53q0 10 10 10h498q10 0 10 -10v-55q0 -8 -8 -8l-139 -17q-8 0 -8 -10v-555l495 557q4 4 2 10t-8 6l-84 9q-10 0 -10 10v53q0 10 10 10h414q10 0 10 -10v-53q0 -10 -10 -10l-191 -19 q-4 0 -6 -2l-422 -475q-3 -2 -4 -6l2 -6l516 -701q4 -4 6 -4l187 -18q10 0 10 -11v-53q0 -10 -10 -10h-512q-10 0 -10 10v53q0 11 10 11l90 8q6 0 8 5t0 11l-416 559q-4 5 -8 5q-4 -1 -6 -5l-61 -69q-2 -3 -2 -6v-484q0 -10 8 -10l133 -14q8 0 8 -8v-56q0 -10 -10 -10h-492 q-10 0 -10 10z" />
<glyph unicode="L" horiz-adv-x="1130" d="M78 10v53q0 11 10 11l172 16q10 0 10 10v1178q0 10 -10 10l-172 17q-10 0 -10 10v53q0 10 10 10h555q10 0 10 -10v-53q0 -10 -10 -10l-184 -17q-10 0 -10 -10v-1174q0 -10 10 -10h475q10 0 10 8l41 228q0 8 10 8h76q10 0 10 -10v-318q0 -10 -10 -10h-983q-10 0 -10 10z " />
<glyph unicode="M" horiz-adv-x="1849" d="M49 10v53q0 10 10 11l183 16q10 1 10 10v1178q0 10 -10 10l-174 17q-11 0 -11 10v53q0 10 11 10h413q5 -1 8 -6l437 -1077l438 1077q2 6 8 6h408q10 0 10 -10v-53q0 -10 -10 -10l-174 -17q-11 0 -11 -10v-1178q0 -9 11 -10l184 -16q10 -1 10 -11v-53q0 -10 -10 -10h-576 q-10 0 -10 10v53q0 10 10 11l193 16q10 1 10 10v1137h-8l-506 -1251q-2 -4 -10 -4h-21q-8 0 -10 4l-506 1237h-8v-1123q0 -10 10 -10l170 -16q11 0 11 -11v-53q0 -10 -11 -10h-469q-10 0 -10 10z" />
<glyph unicode="N" horiz-adv-x="1487" d="M41 1307v61q0 10 10 10h361q5 -1 8 -4l760 -1005v901q0 10 -9 10l-151 16q-10 0 -10 11v61q0 10 10 10h426q10 0 10 -10v-61q0 -11 -10 -11l-154 -16q-10 0 -10 -10v-1276q0 -10 -12 -10h-39q-5 1 -10 6l-883 1169v-1050q0 -11 8 -11l150 -16q10 0 10 -10v-62 q0 -10 -10 -10h-426q-11 0 -11 10v62q0 10 11 10l155 16q11 0 11 11v1161q0 10 -11 10l-174 16q-10 0 -10 11z" />
<glyph unicode="O" horiz-adv-x="1548" d="M78 686q0 312 195 516q199 207 509 207t501 -204q187 -199 187 -511q0 -310 -188 -513q-193 -210 -500 -210q-308 0 -506 203t-198 512zM276 735q0 -171 58 -317q65 -162 190 -258.5t285 -96.5q231 0 356 186q107 161 107 404q0 272 -135 461q-145 203 -379 203 q-230 0 -363 -181q-119 -163 -119 -401z" />
<glyph unicode="P" horiz-adv-x="1208" d="M76 10v53q0 11 10 11l174 16q10 0 10 10v1178q0 10 -10 10l-174 17q-10 0 -10 10v53q0 10 10 10h512q196 0 296 -34q253 -86 253 -357q0 -181 -162 -296q-144 -101 -334 -105l-198 35v-521q0 -9 10 -10l194 -16q11 -1 11 -11v-53q0 -10 -11 -10h-571q-10 0 -10 10z M453 692q0 -10 10 -10h119q362 0 362 317q0 154 -113 224q-98 61 -268 61h-100q-10 0 -10 -10v-582z" />
<glyph unicode="Q" horiz-adv-x="1548" d="M78 686q0 312 195 516q199 207 509 207t501 -204q187 -199 187 -511q0 -352 -237 -559q-77 -67 -170 -108q-6 -2 -6 -7q0 -6 2 -8q126 -90 286 -160q190 -83 314 -83q74 0 184 20q8 0 8 -6l25 -64q1 -2 1 -3.5t-1 -2.5l-6 -4l-262 -127q-89 8 -218 67q-198 90 -379 233 q-61 48 -106 93q-4 5 -7 5h-9q-45 -9 -107 -9q-308 0 -506 203t-198 512zM276 735q0 -171 58 -317q65 -162 190 -258.5t285 -96.5q231 0 356 186q107 161 107 404q0 272 -135 461q-145 203 -379 203q-230 0 -363 -181q-119 -163 -119 -401z" />
<glyph unicode="R" horiz-adv-x="1337" d="M76 10v53q0 11 10 11l174 16q10 0 10 10v1178q0 10 -10 10l-174 17q-10 0 -10 10v53q0 10 10 10h483q278 0 400 -86q143 -101 143 -274q0 -199 -195 -302q-60 -32 -129 -50q106 -51 199 -230l176 -338q4 -8 15 -8l149 -16q10 0 10 -11v-53q0 -10 -10 -10h-321 q-11 0 -15 8l-176 369q-127 266 -328 266h-24q-10 0 -10 -8v-535q0 -9 10 -10l194 -16q11 -1 11 -11v-53q0 -10 -11 -10h-571q-10 0 -10 10zM453 737q0 -10 8 -10q142 0 199 5q146 13 213 115q38 58 38 142q0 295 -376 295h-72q-10 0 -10 -10v-537z" />
<glyph unicode="S" horiz-adv-x="985" d="M74 1016q0 129 79 229q77 97 202 138q80 26 169 26q119 0 244 -29q34 -8 74 -20q10 -2 10 -10v-310q0 -10 -10 -10h-80q-10 0 -10 8l-41 230q0 6 -9 10q-88 39 -190 39q-106 0 -180 -56q-82 -62 -82 -165q0 -99 73 -168q49 -46 160 -97l133 -61q156 -72 227 -146 q89 -93 89 -231q0 -206 -158 -320q-141 -102 -354 -102q-109 0 -251 32q-40 9 -73 22q-10 4 -10 10v309q0 10 10 10h84q10 -3 10 -8l41 -231q1 -3 4 -5l5 -6q72 -36 200 -36q126 0 211 59q97 67 97 188q0 168 -224 273l-135 63q-148 69 -220 141q-95 95 -95 224z" />
<glyph unicode="T" horiz-adv-x="1235" d="M41 1047v321q0 10 10 10h1133q10 0 10 -10v-321q0 -11 -10 -11h-76q-10 0 -10 8l-41 232q0 8 -10 8h-332q-8 0 -8 -10v-1174q0 -9 10 -10l194 -16q11 -1 11 -11v-53q0 -10 -11 -10h-587q-11 0 -11 10v53q0 10 11 11l194 16q10 1 10 10v1174q0 10 -8 10h-332q-10 0 -10 -8 l-41 -232q0 -8 -10 -8h-76q-10 0 -10 11z" />
<glyph unicode="U" horiz-adv-x="1470" d="M31 1315v53q0 10 10 10h555q10 0 10 -10v-53q0 -10 -10 -10l-184 -17q-11 0 -11 -10v-739q0 -153 17 -236q13 -64 53 -110q107 -123 309 -123q217 0 324 172q34 54 45 169q6 62 6 150v717q0 10 -10 10l-174 17q-10 0 -10 10v53q0 10 10 10h475q10 0 10 -10v-53 q0 -10 -10 -10l-168 -17q-10 0 -10 -10v-709q0 -336 -138 -469q-134 -129 -378 -129q-275 0 -414 138q-61 61 -84 127q-31 89 -31 229v813q0 10 -10 10l-172 17q-10 0 -10 10z" />
<glyph unicode="V" horiz-adv-x="1458" d="M20 1315v53q0 10 11 10h526q10 0 10 -10v-53q0 -10 -10 -10l-160 -17q-6 0 -8 -4t0 -10l379 -1014l391 1018q5 13 -10 14l-154 13q-10 1 -10 10v53q0 10 10 10h445q10 0 10 -10v-53q0 -10 -10 -10l-168 -17q-5 -1 -8 -6l-510 -1305q-2 -6 -9 -6h-53q-6 0 -8 6l-483 1303 q-2 6 -8 6l-164 19q-9 0 -9 10z" />
<glyph unicode="W" horiz-adv-x="2122" d="M20 1315v53q0 10 11 10h526q10 0 10 -10v-53q0 -10 -10 -10l-156 -17q-6 0 -8 -4t0 -10l369 -1014l260 715l-107 305q-4 6 -8 6l-168 19q-8 0 -8 10v53q0 10 10 10h527q10 0 10 -10v-53q0 -10 -10 -10l-156 -17q-13 0 -8 -14l348 -1016l365 1020q6 12 -11 14l-149 13 q-10 1 -10 10v53q0 10 10 10h446q11 0 11 -10v-53q0 -10 -11 -10l-172 -17q-6 0 -8 -6l-483 -1305q-2 -6 -8 -6h-56q-6 0 -8 6l-301 863l-322 -863q-4 -6 -8 -6h-51q-5 1 -8 6l-473 1303q-2 6 -8 6l-168 19q-9 0 -9 10z" />
<glyph unicode="X" horiz-adv-x="1335" d="M6 10v53q0 11 10 11l154 14q5 1 8 4l406 586l-371 606q-4 4 -8 4l-174 17q-11 0 -11 10v53q0 10 11 10h553q10 0 10 -10v-53q0 -10 -10 -10l-148 -13q-6 0 -8 -6t0 -10l274 -447l312 447q2 2 2 5q0 11 -10 11l-142 13q-10 0 -10 10v53q0 10 10 10h436q11 0 11 -10v-53 q0 -10 -11 -10l-153 -15q-5 -1 -8 -4l-381 -547l397 -645q4 -4 8 -4l174 -16q11 0 11 -11v-53q0 -10 -11 -10h-553q-10 0 -10 10v53q0 10 10 11l148 12q6 0 8 5t0 11l-301 486l-336 -486q-4 -6 -1 -11q1 -2 2 -2q3 -3 7 -3l142 -12q10 -1 10 -11v-53q0 -10 -10 -10h-437 q-10 0 -10 10z" />
<glyph unicode="Y" horiz-adv-x="1382" d="M20 1315v53q0 10 11 10h544q11 0 11 -10v-53q0 -10 -11 -10l-147 -13q-6 0 -8 -6t0 -10l328 -594l342 594q2 2 2 5q0 11 -11 11l-141 13q-10 0 -10 10v53q0 10 10 10h424q10 0 10 -10v-53q0 -10 -10 -10l-154 -15q-5 -1 -8 -4l-407 -698q-2 -3 -2 -10v-478q0 -10 10 -10 l174 -16q10 0 10 -11v-53q0 -10 -10 -10h-547q-10 0 -10 10v53q0 11 10 11l174 16q10 0 10 10v467q0 8 -2 13l-399 704q-4 4 -8 4l-174 17q-11 0 -11 10z" />
<glyph unicode="Z" horiz-adv-x="1278" d="M70 72l860 1212h-666q-10 0 -10 -8l-41 -232q0 -8 -10 -8h-76q-10 0 -10 11v321q0 10 10 10h1001q7 0 9 -6l32 -55q2 -2 1 -4l-3 -6l-866 -1213h723q10 0 10 8l41 232q0 8 10 8h76q10 0 10 -10v-322q0 -10 -10 -10h-1052q-7 0 -9 6l-32 55q-1 3 -1 5q0 3 3 6z" />
<glyph unicode="[" horiz-adv-x="674" d="M184 -385v1819q0 12 13 12h340q12 0 12 -12v-68q0 -12 -10 -12h-244q-10 0 -10 -13v-1636q0 -10 10 -10h244q12 0 10 -12v-68q2 -12 -12 -12h-340q-13 0 -13 12z" />
<glyph unicode="\" horiz-adv-x="635" d="M2 1405q-4 11 6 14l76 25q11 3 14 -6l553 -1526q4 -11 -6 -14l-76 -25q-12 -4 -14 6z" />
<glyph unicode="]" horiz-adv-x="674" d="M124 -317q1 12 10 12h245q10 0 10 12v1636q0 11 -10 11h-245q-11 0 -10 12v68q-1 12 12 12h341q12 0 12 -12v-1819q0 -12 -12 -12h-341q-11 0 -12 12v68z" />
<glyph unicode="^" d="M108 626q0 3 3 5l360 772q2 6 8 6h66q6 0 8 -6l360 -772q3 -2 3 -5q0 -10 -11 -10h-90q-5 1 -8 7l-295 632l-295 -632q-3 -7 -8 -7h-90q-11 0 -11 10z" />
<glyph unicode="_" d="M0 -184h1024v-95h-1024v95z" />
<glyph unicode="`" d="M239 1366q0 12 9 12h168q11 0 16 -12l148 -348q6 -14 -11 -14h-55q-5 1 -8 4l-266 354q-1 2 -1 4z" />
<glyph unicode="a" horiz-adv-x="907" d="M61 190q0 169 172 248q52 24 106 35q120 25 218 33v158q0 159 -156 159q-89 0 -155 -32q-6 -5 -10 -17l-29 -151q0 -9 -10 -9h-64q-10 0 -10 9v227q0 6 10 10q162 58 307 58q205 0 266 -123q23 -46 23 -117v-553q0 -8 8 -12l129 -37q10 -6 11 -10v-35q-4 -11 -9 -11 l-270 -36q-10 0 -10 10l-17 96q-129 -119 -280 -119q-157 0 -212 129q-18 42 -18 90zM244 229q0 -131 131 -131q38 0 92 19q27 10 80 37q10 7 10 12v260q-105 -6 -158 -23q-14 -4 -49 -16q-106 -36 -106 -158z" />
<glyph unicode="b" horiz-adv-x="1075" d="M16 1346v47q0 10 9 10l258 41q6 2 10 2h59q10 0 10 -10v-633q131 115 295 115q162 0 261 -129q92 -120 92 -291q0 -225 -135 -374q-140 -153 -363 -153q-81 0 -182 26q-85 22 -133 60v1252q0 10 -11 10l-159 16q-11 0 -11 11zM362 109q46 -46 166 -46q214 0 278 228 q19 68 19 149q0 144 -55 233q-66 109 -201 109q-100 0 -203 -59q-4 -2 -4 -8v-606z" />
<glyph unicode="c" horiz-adv-x="913" d="M66 416q0 210 128 354q133 148 341 148q142 0 268 -48q10 -4 10 -10v-237q0 -9 -10 -9h-64q-10 0 -10 9l-33 155q0 6 -8 13q-86 40 -160 40q-132 0 -210 -108q-70 -97 -70 -234q0 -171 75 -279q86 -124 250 -124q122 0 232 74q6 4 8 2t4 -6l29 -50q1 -2 1 -4q0 -5 -7 -10 q-175 -121 -342 -121q-199 0 -316 124q-116 121 -116 321z" />
<glyph unicode="d" horiz-adv-x="1081" d="M66 391q0 224 135 373q141 154 362 154q62 0 150 -19v410q0 10 -11 10l-159 16q-11 0 -11 11v47q0 10 9 10l258 41q6 2 10 2h59q11 0 11 -10v-1338q0 -10 10 -10l147 -16q11 0 11 -11v-47q0 -9 -9 -10l-305 -20q-9 -1 -10 10l-6 96q-147 -119 -299 -119q-163 0 -262 133 q-90 121 -90 287zM250 449q0 -143 55 -233q66 -110 201 -110q107 0 196 56q10 9 11 12v606q-22 22 -65 32q-58 13 -101 13q-148 0 -228 -118q-69 -103 -69 -258z" />
<glyph unicode="e" horiz-adv-x="940" d="M66 416q0 206 110 347q120 155 320 155q177 0 269 -101q89 -98 89 -276q0 -32 -4 -66q0 -10 -10 -10h-590q4 -167 78 -266q85 -113 245 -113q128 0 240 70q4 4 7 2q2 -3 5 -6l29 -50q2 -9 -6 -14q-175 -117 -354 -117q-200 0 -315 124q-113 120 -113 321zM252 545h418v24 q0 258 -193 258q-160 0 -207 -178q-14 -53 -18 -104z" />
<glyph unicode="f" horiz-adv-x="651" d="M37 10v51q0 11 10 11l160 14q10 0 10 10v684q-4 6 -10 6h-152q-10 0 -10 11v51q0 10 10 10l152 19q10 0 10 10v92q0 258 96 360q100 107 271 107q71 0 192 -31q10 -5 10 -12v-232q0 -8 -10 -8h-63q-11 0 -11 8l-26 140q-4 20 -57 34q-26 7 -56 7q-180 0 -180 -285v-176 q0 -10 10 -10h246q10 0 10 -11v-73q0 -11 -10 -11h-246q-10 0 -10 -10v-680q0 -9 10 -10l162 -14q10 -1 10 -11v-51q0 -10 -10 -10h-508q-10 0 -10 10z" />
<glyph unicode="g" horiz-adv-x="975" d="M43 -279q0 72 62 145q56 67 128 95q-52 14 -84 58.5t-32 99.5q0 103 151 194q-145 91 -145 269q0 146 106 242q103 94 250 94q78 0 146 -29h299q10 0 10 -10v-52q0 -9 -10 -10l-181 -14q78 -86 78 -211q0 -143 -102.5 -237.5t-247.5 -94.5q-76 0 -135 21q-72 -42 -72 -93 q0 -76 62 -85q20 -3 47 -3h159q134 0 199 -14q112 -23 168 -96q35 -45 45 -109q4 -25 4 -45q0 -130 -93 -222q-82 -81 -216 -118q-88 -24 -193 -24q-155 0 -261 48q-142 64 -142 201zM203 -252q0 -192 270 -192q126 0 208 46q101 58 101 175q0 166 -260 166h-172 q-59 -10 -103 -71.5t-44 -123.5zM301 592q0 -127 58 -194q45 -52 120 -52q107 0 146 121q14 44 14 113q0 251 -168 251q-116 0 -155 -125q-15 -48 -15 -114z" />
<glyph unicode="h" horiz-adv-x="1169" d="M37 1346v47q0 10 8 10l258 41q6 2 10 2h60q10 0 10 -10v-625q161 111 315 111q265 0 265 -297v-529q0 -10 10 -10l133 -14q10 0 10 -11v-51q0 -10 -10 -10h-449q-10 0 -10 10v51q0 11 10 11l129 14q11 0 11 10v469q0 221 -191 221q-72 0 -165 -28q-28 -8 -48 -19 q-10 -4 -10 -12v-631q0 -10 10 -10l129 -14q10 0 10 -11v-51q0 -10 -10 -10h-459q-10 0 -10 10v51q0 11 10 11l144 14q10 0 10 10v1213q0 10 -10 10l-160 16q-10 0 -10 11z" />
<glyph unicode="i" horiz-adv-x="584" d="M51 809v47q0 10 8 10l246 41q4 1 12 2h58q10 0 10 -10v-803q0 -10 10 -10l133 -14q11 0 11 -11v-51q0 -10 -11 -10h-462q-11 0 -11 10v51q0 11 11 11l143 14q10 0 10 10v676q0 10 -10 10l-148 17q-10 0 -10 10zM180 1280q0 48 31.5 78.5t79.5 30.5t79 -30.5t31 -78.5 t-31 -78.5t-79 -30.5t-79.5 30.5t-31.5 78.5z" />
<glyph unicode="j" horiz-adv-x="528" d="M-25 -457q98 62 136 108q60 74 79 191q11 67 11 209v721q0 10 -11 10l-147 17q-10 0 -10 10v47q3 10 8 10l246 41q4 1 12 2h57q11 0 11 -10v-838q0 -214 -55 -331q-78 -165 -302 -254q-7 0 -10 8l-25 43q-3 5 -3 9t3 7zM162 1280q0 48 31 78.5t79 30.5q49 0 80 -30 t31 -79q0 -48 -31.5 -78.5t-79.5 -30.5t-79 30.5t-31 78.5z" />
<glyph unicode="k" horiz-adv-x="1085" d="M37 1346v47q0 10 8 10l258 41q6 2 10 2h60q10 0 10 -10v-912q0 -6 4 -8t10 4l301 277q2 4 1 8t-7 4l-104 8q-10 1 -10 10v52q0 10 10 10h385q10 0 10 -10v-52q0 -10 -10 -10l-137 -12q-3 -1 -7 -4l-270 -250q-4 -2 -4 -6q0 -5 2 -8l389 -449q3 -4 6 -4l119 -12 q10 0 10 -11v-51q0 -10 -10 -10h-432q-10 0 -10 10v51q0 10 10 11l82 6q6 0 6 4q0 5 -2 8l-324 373q-4 4 -11 1t-7 -9v-359q0 -10 10 -10l107 -14q10 0 10 -11v-51q0 -10 -10 -10h-432q-11 0 -11 10v51q0 11 11 11l139 14q10 0 10 10v1213q0 10 -10 10l-160 16q-10 0 -10 11 z" />
<glyph unicode="l" horiz-adv-x="586" d="M37 10v51q0 11 10 11l160 14q10 0 10 10v1213q0 10 -10 10l-160 17q-10 0 -10 10v47q3 10 8 10l258 41q6 2 10 2h60q10 0 10 -10v-1340q0 -9 10 -10l162 -14q10 -1 10 -11v-51q0 -10 -10 -10h-508q-10 0 -10 10z" />
<glyph unicode="m" horiz-adv-x="1681" d="M55 809v47q0 10 8 10l246 41q12 2 21 2h49q10 0 10 -10v-88q148 111 297 111q151 0 223 -131q148 122 320 122q262 0 262 -297v-520q0 -10 10 -10l133 -14q11 0 11 -11v-51q0 -10 -11 -10h-438q-10 0 -10 10v51q0 11 10 11l119 14q10 0 10 10v459q0 221 -188 221 q-118 0 -205 -55q8 -32 8 -92v-533q0 -10 10 -10l119 -14q10 0 10 -11v-51q0 -10 -10 -10h-424q-10 0 -10 10v51q0 11 10 11l119 14q10 0 10 10v469q0 221 -180 221q-101 0 -195 -47q-4 -2 -10 -8v-635q0 -10 10 -10l119 -14q10 0 10 -11v-51q0 -10 -10 -10h-448 q-11 0 -11 10v51q0 11 11 11l143 14q10 0 10 10v676q0 10 -10 10l-147 17q-11 0 -11 10z" />
<glyph unicode="n" horiz-adv-x="1159" d="M55 809v47q0 10 8 10l246 41q11 2 13 2h57q10 0 10 -10v-88q92 73 226 102q41 9 90 9q264 0 264 -297v-529q0 -10 10 -10l133 -14q10 0 10 -11v-51q0 -10 -10 -10h-448q-11 0 -11 10v51q0 11 11 11l129 14q10 0 10 10v469q0 110 -39 162q-45 59 -152 59q-121 0 -213 -47 q-8 -4 -10 -8v-635q0 -10 10 -10l129 -14q11 0 11 -11v-51q0 -10 -11 -10h-458q-11 0 -11 10v51q0 11 11 11l143 14q10 0 10 10v676q0 10 -10 10l-147 17q-11 0 -11 10z" />
<glyph unicode="o" horiz-adv-x="1040" d="M66 438q0 212 123 344q127 136 337 136q216 0 334 -126q115 -123 115 -341q0 -209 -124 -343q-128 -137 -335 -137q-214 0 -333 128q-117 124 -117 339zM252 485q0 -287 154 -389q56 -37 135 -37q247 0 247 347q0 171 -58 281q-74 142 -230 142q-133 0 -197 -112 q-51 -89 -51 -232z" />
<glyph unicode="p" horiz-adv-x="1069" d="M23 809v47q3 10 8 10l245 41q4 1 13 2h57q10 0 10 -10v-96q141 115 295 115q164 0 263 -132q90 -119 90 -288q0 -227 -134 -375q-139 -152 -364 -152q-62 0 -150 19v-396q0 -10 11 -10l157 -14q11 0 11 -10v-52q0 -10 -11 -10h-487q-10 0 -10 10v52q0 10 10 10l143 14 q10 0 10 10v1178q0 10 -10 10l-147 17q-10 0 -10 10zM356 109q46 -46 166 -46q214 0 278 228q19 68 19 149q0 144 -55 233q-66 109 -201 109q-108 0 -196 -55q-11 -4 -11 -12v-606z" />
<glyph unicode="q" horiz-adv-x="1055" d="M66 391q0 225 135 373q140 154 362 154q109 0 211 -48l31 33q4 6 10 6h53q11 0 11 -10v-1305q0 -10 10 -10l137 -14q10 0 10 -10v-52q0 -10 -10 -10h-467q-10 0 -10 10v52q0 10 10 10l143 14q11 0 11 10v492q-134 -115 -295 -115q-163 0 -262 133q-90 121 -90 287z M250 449q0 -143 55 -233q66 -110 201 -110q107 0 196 56q10 9 11 12v604q-47 47 -166 47q-148 0 -228 -118q-69 -103 -69 -258z" />
<glyph unicode="r" horiz-adv-x="784" d="M55 809v47q0 10 8 10l246 41q11 2 13 2h57q10 0 10 -10v-190l109 127q70 82 145 82q31 0 77 -19t68 -41q3 -2 5 -8q1 -2 1 -4q0 -4 -3 -6l-101 -144q-7 -10 -11 -10q-3 0 -5 2q-45 45 -99 45q-67 0 -118 -59l-60 -70q-8 -9 -8 -22v-486q0 -9 10 -10l174 -14q11 -1 11 -11 v-51q0 -10 -11 -10h-503q-11 0 -11 10v51q0 11 11 11l143 14q10 0 10 10v676q0 10 -10 10l-147 17q-11 0 -11 10z" />
<glyph unicode="s" horiz-adv-x="735" d="M66 653q0 120 108 198q93 67 223 67q106 0 219 -37q11 -2 11 -11v-231q0 -8 -11 -8h-63q-10 3 -10 8l-33 160q0 8 -8 12q-50 23 -113 23q-108 0 -149 -73q-15 -27 -15 -59q0 -93 148 -153l86 -35q225 -92 225 -250q0 -137 -114 -219q-102 -74 -244 -74q-103 0 -242 47 q-10 2 -10 11v237q0 8 10 8h63q11 0 11 -8l32 -164q1 -4 9 -12q70 -33 145 -33q176 0 176 148q0 87 -90 130q-15 7 -55 25l-92 37q-217 87 -217 256z" />
<glyph unicode="t" horiz-adv-x="676" d="M20 795v10q0 6 7 12l262 264q9 9 16 9h10q9 0 9 -11v-188q0 -10 10 -10h272q10 0 10 -11v-73q0 -11 -10 -11h-272q-10 0 -10 -10v-545q0 -147 131 -147q96 0 155 49q4 4 10 3q4 -1 7 -3l26 -51q2 -9 -6 -14q-79 -53 -136 -72q-76 -25 -155 -25q-84 0 -141 52t-57 135v618 q0 10 -11 10h-118q-9 0 -9 9z" />
<glyph unicode="u" horiz-adv-x="1108" d="M0 809v47q0 10 8 10l246 41q3 1 10 2h60q10 0 10 -10v-602q0 -191 192 -191q99 0 203 64q10 6 10 12v590q0 10 -10 10l-147 17q-11 0 -11 10v47q0 10 9 10l245 41q4 1 13 2h57q10 0 10 -10v-801q0 -10 10 -10l148 -16q10 0 10 -11v-47q0 -9 -8 -10l-305 -20q-9 -1 -10 10 l-7 102q-146 -125 -307 -125q-117 0 -191 68q-77 70 -77 186v547q0 10 -10 10l-148 17q-10 0 -10 10z" />
<glyph unicode="v" horiz-adv-x="1040" d="M8 827v52q0 10 10 10h426q11 0 11 -10v-52q0 -8 -9 -8l-106 -12q-14 0 -8 -14l235 -562l234 562q2 5 0 10q-2 4 -8 4l-107 12q-8 0 -8 8v52q0 10 10 10h330q10 0 10 -10v-50q0 -10 -10 -10l-113 -12q-5 0 -8 -6l-344 -815q-3 -6 -8 -6h-47q-5 1 -9 6l-346 813q-4 6 -8 6 l-119 14q-8 0 -8 8z" />
<glyph unicode="w" horiz-adv-x="1579" d="M8 827v52q0 10 10 10h426q-1 1 -1 2q12 0 12 -12v-52q0 -8 -9 -8l-106 -12q-14 0 -8 -14l229 -557l189 419q3 7 5 14q-1 3 -5 11l-48 119q-4 6 -8 6l-108 14q-8 0 -8 8v52q0 10 10 10h411q11 0 11 -10v-52q0 -8 -9 -8l-106 -12q-14 0 -8 -14l227 -557l225 557q6 14 -8 14 l-106 12q-8 0 -8 8v52q0 10 10 10h329q11 0 11 -10v-50q0 -10 -11 -10l-112 -12q-5 -1 -8 -6l-334 -815q-2 -6 -8 -6h-52q-6 0 -8 6l-237 579l-256 -579q-2 -6 -9 -6h-47q-6 0 -8 6l-334 813q-4 6 -8 6l-119 14q-8 0 -8 8z" />
<glyph unicode="x" horiz-adv-x="999" d="M20 10v51q0 11 11 11l137 14q3 1 6 4l262 328q2 6 0 12l-258 369q-4 4 -6 4l-135 14q-10 0 -10 10v52q0 10 10 10h436q10 0 10 -10v-52q0 -9 -10 -10l-76 -6q-6 0 -9 -5t1 -11l160 -232l180 230q2 6 1 11t-7 5l-68 8q-10 0 -10 10v52q0 10 10 10h310q10 0 10 -10v-52 q0 -10 -10 -10l-115 -12q-3 -1 -6 -4l-242 -303q-5 -6 0 -13l275 -397q4 -4 6 -4l121 -12q10 0 10 -11v-51q0 -10 -10 -10h-424q-11 0 -11 10v51q0 10 11 11l77 6q7 1 9 5q2 5 -2 11l-175 258l-200 -256q-2 -6 -1 -11t7 -5l86 -8q10 0 10 -11v-51q0 -10 -10 -10h-350 q-11 0 -11 10z" />
<glyph unicode="y" horiz-adv-x="1061" d="M8 827v52q0 10 10 10h426q11 0 11 -10v-52q0 -8 -9 -8l-106 -12q-14 0 -8 -14l241 -584l248 584q6 14 -8 14l-106 12q-9 0 -9 8v52q0 10 11 10h329q11 0 11 -10v-50q0 -10 -11 -10l-112 -12q-5 -1 -8 -6l-367 -864q-198 -465 -344 -465q-6 0 -14 4l-97 96q-7 7 -2 14 l25 41q4 4 10 4q97 0 158 45q48 36 104 130q35 58 86 176q4 9 0 26l-334 791q-4 6 -8 6l-119 14q-8 0 -8 8z" />
<glyph unicode="z" horiz-adv-x="920" d="M61 51v4q0 2 2 4l537 744h-379q-10 0 -10 -8l-35 -172q0 -9 -10 -9h-60q-10 0 -10 11v254q0 10 10 10h705q6 0 10 -6l13 -39v-4q0 -2 -3 -4l-546 -750h415q7 0 11 8l37 172q4 8 10 8h59q10 0 10 -10v-254q0 -10 -10 -10h-735q-6 0 -10 8z" />
<glyph unicode="{" horiz-adv-x="662" d="M82 518v53q0 11 10 11q49 5 74 18q63 43 63 148q0 64 -36.5 192t-36.5 201q0 137 79 209q63 57 173 82q65 14 172 14q10 0 10 -12v-56q0 -9 -10 -10q-115 -6 -170.5 -38t-76.5 -108q-11 -40 -11 -98q0 -35 27 -278q5 -45 5 -78q0 -74 -47 -143q-35 -51 -82 -76v-8 q52 -31 82 -76q47 -70 47 -164q0 -48 -16 -181t-16 -196q0 -108 42 -163q37 -49 98 -63q8 -2 118 -17q10 0 10 -11v-55q0 -12 -10 -12q-244 0 -345 97q-79 75 -79 208q0 66 23 160q19 78 39 157q11 51 11 97q0 128 -63 167q-23 14 -74 19q-10 0 -10 10z" />
<glyph unicode="|" horiz-adv-x="510" d="M205 -594v2132q0 10 10 10h80q10 0 10 -10v-2132q0 -10 -10 -10h-80q-10 0 -10 10z" />
<glyph unicode="}" horiz-adv-x="662" d="M72 -330q0 11 10 11q44 6 89 11q51 9 84 28q52 31 74 107q11 40 11 97q0 30 -28 293q-5 47 -5 84q0 98 47 164q30 43 82 76v8q-46 27 -82 76q-47 65 -47 143q0 48 16.5 172t16.5 184q0 104 -41 165q-29 42 -99 63q-45 12 -118 16q-10 1 -10 10v56q0 12 10 12 q161 0 264 -44q160 -70 160 -261q0 -66 -37 -201t-37 -192q0 -70 33 -118q14 -20 35 -31.5t69 -16.5q11 0 11 -11v-53q0 -10 -11 -10q-25 -2 -73 -19q-34 -21 -50 -71q-14 -41 -14 -96q0 -61 37 -201t37 -213q0 -133 -79 -208q-87 -82 -265 -94q-45 -3 -80 -3q-10 0 -10 12 v55z" />
<glyph unicode="~" d="M55 1235q-6 8 4 14q148 137 287 137q65 0 176 -62t168 -62q103 0 223 116q9 6 15 -4l41 -61q6 -8 -4 -15q-154 -137 -287 -137q-62 0 -176 62.5t-168 62.5q-103 0 -223 -117q-9 -9 -15 5z" />
<glyph unicode="&#xa1;" horiz-adv-x="543" d="M163 -492l80 1039q0 10 10 10h56q10 0 10 -10l80 -1039q0 -10 -10 -10h-215q-11 0 -11 10zM170 807q0 22 9 41.5t24.5 35t36 25t42.5 9.5q23 0 43.5 -9.5t34.5 -25t23.5 -35t9.5 -41.5q0 -23 -9.5 -43.5t-23.5 -35.5t-34.5 -24.5t-43.5 -9.5q-22 0 -42.5 9.5t-36 24.5 t-24.5 35.5t-9 43.5z" />
<glyph unicode="&#xa2;" d="M109 416q0 102 31.5 189t88 151.5t133 104.5t168.5 52v162q0 10 11 10h73q11 0 11 -10v-157q67 -5 131.5 -15t124.5 -33q10 -4 10 -10v-237q0 -9 -10 -9h-64q-4 0 -7 2t-3 7l-33 155q0 6 -8 13q-35 18 -68.5 26t-72.5 12v-743h6q78 0 140.5 20.5t111.5 53.5q6 4 8 2t4 -6 l29 -50q4 -8 -6 -14q-66 -47 -135.5 -76.5t-157.5 -40.5v-159q0 -11 -11 -11h-73q-11 0 -11 11v155q-102 4 -180 38t-131 91.5t-81.5 137t-28.5 178.5zM291 489q0 -69 13 -132.5t42 -116t74 -89t110 -53.5v729q-57 -10 -102 -39.5t-74.5 -73.5t-46 -101.5t-16.5 -123.5z" />
<glyph unicode="&#xa3;" d="M16 37q-4 7 4 12q220 126 236 506h-164q-10 0 -10 10v66q0 10 10 10h166q0 70 -29.5 219t-29.5 217q0 159 134 250q119 80 292 80q164 0 311 -64l6 -14v-291q0 -10 -10 -10h-72q-10 0 -10 8l-29 209q-4 17 -12 21q-89 43 -197 43q-102 0 -167 -55q-68 -58 -68 -160 q0 -40 22.5 -198t22.5 -253v-2h352q10 0 10 -10v-66q0 -10 -10 -10h-358q-34 -251 -191 -436q139 43 181 43q44 0 175 -25.5t185 -25.5q65 0 70 24l36 189q0 8 9 8h75q11 0 11 -10v-332q0 -7 -11 -10q-60 -23 -168 -23q-74 0 -253 43t-232 43q-69 0 -246 -68q-7 -2 -10 7z " />
<glyph unicode="&#xa4;" d="M37 1071q-6 8 0 14l53 54q6 6 14 0l197 -197q98 72 213 72q55 0 109.5 -18.5t99.5 -53.5l197 197q8 6 14 0l53 -54q6 -6 0 -14l-199 -197q35 -49 52.5 -103t17.5 -109q0 -56 -17.5 -109t-52.5 -100l197 -197q6 -6 0 -14l-51 -52q-6 -8 -14 0l-197 197 q-47 -37 -102.5 -55.5t-112.5 -18.5q-55 0 -108.5 18.5t-98.5 53.5l-197 -195q-8 -8 -14 0l-51 52q-6 8 0 14l197 197q-35 49 -53.5 103t-18.5 112q0 55 17.5 107t51.5 99zM274 664q0 -50 18.5 -95t51.5 -77.5t77 -52t95 -19.5t93 19.5t74 52t49.5 77.5t17.5 95 q0 51 -18.5 95t-51.5 77.5t-77 53t-95 19.5t-93 -19.5t-74 -53t-49.5 -77.5t-17.5 -95z" />
<glyph unicode="&#xa5;" d="M-41 1314v54q0 10 10 10h469q11 0 11 -10v-54q0 -10 -11 -10l-106 -12q-6 0 -9.5 -6t1.5 -11l235 -531l246 531q4 5 1 11t-9 6l-101 12q-10 0 -10 10v54q0 10 10 10h357q10 0 10 -10v-54q0 -10 -10 -10l-133 -14q-5 0 -9 -4l-305 -650h307q11 0 11 -10v-66q0 -10 -11 -10 h-309v-113h309q11 0 11 -10v-66q0 -10 -11 -10h-309v-251q0 -10 10 -10l174 -16q11 0 11 -11v-53q0 -10 -11 -10h-546q-11 0 -11 10v53q0 11 11 11l174 16q10 0 10 10v251h-305q-10 0 -10 10v66q0 10 10 10h305v113h-305q-10 0 -10 10v66q0 10 10 10h303l-293 648q-4 4 -8 4 l-154 16q-10 0 -10 10z" />
<glyph unicode="&#xa6;" horiz-adv-x="510" d="M201 -18v628q0 11 10 11h88q10 0 10 -11v-628q0 -11 -10 -11h-88q-10 0 -10 11zM201 770v629q0 10 10 10h88q10 0 10 -10v-629q0 -10 -10 -10h-88q-10 0 -10 10z" />
<glyph unicode="&#xa7;" d="M83 397q0 70 20.5 126.5t57.5 100.5t86 73.5t109 50.5q-47 26 -88 56t-71 65.5t-46 78.5t-16 99q0 83 35.5 151t95 115t136.5 71.5t157 24.5q32 0 71 -3t80 -9t81 -14.5t71 -18.5q8 -4 8 -12v-303q0 -5 -3 -9t-9 -4h-80q-4 0 -9.5 3t-5.5 8l-34 229q-2 8 -13 12 q-32 15 -77.5 22t-90.5 7q-47 0 -88 -12.5t-72.5 -37t-51 -60.5t-19.5 -85q0 -47 16.5 -82.5t44 -64.5t65.5 -51.5t81 -42.5l125 -58q61 -28 115.5 -61t93.5 -74t61.5 -93t22.5 -120q0 -69 -20.5 -125.5t-57.5 -99.5t-87 -75t-108 -50q47 -27 88 -56.5t71 -65.5t46 -80 t16 -97q0 -84 -35.5 -151.5t-94 -114.5t-135.5 -72t-159 -25q-32 0 -71 3.5t-80 9.5t-81 14t-71 18q-8 7 -8 13v303q0 4 3 8t9 4h80q4 0 9.5 -3t5.5 -7l34 -229q5 -11 13 -13q33 -14 78 -21t90 -7q47 0 89 12t72.5 35.5t50 60.5t19.5 86q0 47 -16.5 83t-44 64.5t-65.5 51 t-81 43.5l-125 57q-61 29 -115.5 61.5t-93 73.5t-61.5 93.5t-23 119.5zM270 467q0 -49 16.5 -87t49 -72t84 -62.5t122.5 -59.5q45 7 83 23t67.5 43t46 65.5t16.5 88.5q0 49 -16.5 87.5t-49 71.5t-83.5 61.5t-123 59.5q-45 -6 -83 -22.5t-67.5 -43t-46 -65.5t-16.5 -88z" />
<glyph unicode="&#xa8;" d="M231 1192q0 20 8.5 38.5t21.5 33t31.5 22.5t41.5 8q20 0 39.5 -8t33 -22.5t21.5 -33t8 -38.5q0 -21 -8 -39t-21.5 -31.5t-33 -21.5t-39.5 -8q-23 0 -41.5 8t-31.5 21.5t-21.5 31.5t-8.5 39zM588 1192q0 20 8 38.5t21.5 33t33 22.5t39.5 8q23 0 41.5 -8t31.5 -22.5 t21.5 -33t8.5 -38.5q0 -21 -8.5 -39t-21.5 -31.5t-31.5 -21.5t-41.5 -8q-20 0 -39.5 8t-33 21.5t-21.5 31.5t-8 39z" />
<glyph unicode="&#xa9;" horiz-adv-x="1550" d="M66 690q0 150 55 281t151.5 228t225.5 153.5t278 56.5q150 0 280 -56.5t225 -153.5t150.5 -228t55.5 -281q0 -149 -55.5 -280t-150.5 -228.5t-225 -154t-280 -56.5q-149 0 -278 56.5t-225.5 154t-151.5 228.5t-55 280zM158 690q0 -131 48 -246.5t131 -202.5t195.5 -137.5 t243.5 -50.5t244 50.5t196.5 137.5t131 202.5t47.5 246.5t-47.5 247t-131 203t-196.5 137t-244 50t-243.5 -50t-195.5 -137t-131 -203t-48 -247zM322 682q0 111 38.5 198t104 147t150.5 93t178 33q67 0 135.5 -9t126.5 -28q6 -2 7 -5t1 -7v-201q0 -8 -8 -8h-54q-4 0 -7 2 t-3 4l-26 133q0 2 -1 6t-12 9q-28 12 -67 21t-92 9q-82 0 -141.5 -30.5t-97.5 -82t-55.5 -118t-17.5 -137.5q0 -74 18.5 -146.5t58.5 -131t100.5 -95.5t144.5 -37q39 0 79 8t81 25q6 4 10 10t4 8l24 127q0 2 3.5 4t5.5 2h53q10 0 10 -8v-192q0 -9 -6 -11q-31 -14 -68.5 -22 t-76.5 -14.5t-77 -8.5t-69 -2q-104 0 -187 32t-143.5 91.5t-92 143.5t-31.5 188z" />
<glyph unicode="&#xaa;" horiz-adv-x="549" d="M20 698q0 60 30 93.5t79 56.5q10 4 25.5 9t38 10t55.5 10.5t78 9.5v92q0 31 -7.5 49.5t-20.5 28.5t-28.5 13t-33.5 3q-52 0 -93 -20l-3 -3q-1 -1 -3 -6l-18 -90q0 -2 -2 -4t-8 -2h-39q-4 0 -7.5 2t-3.5 4v136q0 8 11 8h-2q41 14 90 24.5t102 10.5q35 0 67.5 -7.5 t57.5 -24t39 -45t14 -69.5v-332l84 -22q6 -2 8 -2t2 -6v-21q0 -2 -2 -5t-8 -3l-168 -23q-6 0 -8 3.5t-2 5.5l-8 51q-35 -29 -79 -47.5t-91 -18.5q-31 0 -57.5 9.5t-46 27t-31 42t-11.5 52.5zM31 418v49q0 4 1 5t3 1h436q2 0 4 -1t2 -5v-49q0 -6 -6 -6h-436q-4 0 -4 6z M141 723q0 -76 78 -76q27 0 54.5 10.5t52.5 24.5v156q-35 -2 -62.5 -7.5t-56.5 -15.5q-33 -12 -49.5 -37.5t-16.5 -54.5z" />
<glyph unicode="&#xab;" horiz-adv-x="823" d="M57 438v33q4 4 2 6l310 326q8 8 14 0l39 -31q8 -6 4 -14l-191 -297q-4 -6 0 -12l191 -297q4 -9 -4 -15l-39 -31q-6 -8 -14 0l-310 326q2 2 -2 6zM368 438v33q9 4 2 6l310 326q6 8 14 0l39 -31q6 -6 4 -14l-190 -297q-2 -6 0 -12l190 -297q2 -9 -4 -15l-39 -31 q-8 -8 -14 0l-310 326q7 2 -2 6z" />
<glyph unicode="&#xac;" d="M102 434v74q0 10 11 10h798q11 0 11 -10v-498q0 -10 -11 -10h-82q-10 0 -10 10v404q0 10 -10 10h-696q-11 0 -11 10z" />
<glyph unicode="&#xad;" horiz-adv-x="776" d="M102 485v86q0 11 11 11h551q10 0 10 -11v-86q0 -10 -10 -10h-551q-11 0 -11 10z" />
<glyph unicode="&#xae;" horiz-adv-x="1550" d="M66 690q0 150 55 281t151.5 228t225.5 153.5t278 56.5q150 0 280 -56.5t225 -153.5t150.5 -228t55.5 -281q0 -149 -55.5 -280t-150.5 -228.5t-225 -154t-280 -56.5q-149 0 -278 56.5t-225.5 154t-151.5 228.5t-55 280zM158 690q0 -131 48 -246.5t131 -202.5t195.5 -137.5 t243.5 -50.5t244 50.5t196.5 137.5t131 202.5t47.5 246.5t-47.5 247t-131 203t-196.5 137t-244 50t-243.5 -50t-195.5 -137t-131 -203t-48 -247zM377 262v45q0 8 4 8l123 13q6 0 9 3t3 5v706q0 2 -3 5.5t-9 3.5l-123 12q-4 0 -4 8v45q0 6 1 7t3 1h356q35 0 71 -1t67.5 -6 t60.5 -13t53 -25q37 -24 64.5 -67t27.5 -109q0 -49 -17 -89t-48 -69.5t-73 -48t-89 -28.5q43 -17 73.5 -48.5t57.5 -84.5l102 -203l4 -2q3 -2 7 -2l98 -13q4 0 4 -8v-45q0 -8 -4 -8h-221h-2q0 2 -2 6l-105 242q-18 41 -35.5 68.5t-38 46t-46 26.5t-62.5 8h-20q-7 0 -11 -4 t-4 -6v-305q0 -2 2 -5t11 -3l112 -13q4 0 4 -8v-45q0 -8 -4 -8h-393q-4 0 -4 8zM649 725q0 -2 2 -6t11 -4h53q100 0 158.5 44t58.5 132q0 49 -20.5 81t-52.5 50t-71.5 24.5t-76.5 6.5h-49q-9 0 -11 -3t-2 -8v-317z" />
<glyph unicode="&#xaf;" d="M209 1098v90q0 10 10 10h586q10 0 10 -10v-90q0 -11 -10 -11h-586q-10 0 -10 11z" />
<glyph unicode="&#x2c9;" d="M209 1098v90q0 10 10 10h586q10 0 10 -10v-90q0 -11 -10 -11h-586q-10 0 -10 11z" />
<glyph unicode="&#xb0;" horiz-adv-x="627" d="M61 1094q0 53 19.5 98t54.5 80t80 54.5t98 19.5q52 0 98 -19.5t80.5 -54.5t54 -80t19.5 -98q0 -54 -19.5 -99t-54 -79.5t-80.5 -54t-98 -19.5q-53 0 -98 19.5t-80 54t-54.5 79.5t-19.5 99zM154 1094q0 -35 12 -66t32.5 -53.5t50.5 -35.5t64 -13q35 0 65 13t50.5 35.5 t32.5 53.5t12 66q0 34 -12 65t-32.5 53.5t-50.5 36t-65 13.5q-34 0 -64 -13.5t-50.5 -36t-32.5 -53.5t-12 -65z" />
<glyph unicode="&#xb1;" d="M61 10v74q0 10 11 10h880q11 0 11 -10v-74q0 -10 -11 -10h-880q-11 0 -11 10zM61 528v74q0 10 11 10h389v320q0 10 10 10h82q10 0 10 -10v-320h389q11 0 11 -10v-74q0 -10 -11 -10h-389v-319q0 -11 -10 -11h-82q-10 0 -10 11v319h-389q-11 0 -11 10z" />
<glyph unicode="&#xb2;" horiz-adv-x="758" d="M64.5 632q1.5 3 7.5 7q92 68 169.5 135.5t147.5 149.5q19 22 36 51t30.5 59.5t20.5 63t7 67.5q0 33 -9 62.5t-29.5 50t-50 33t-70.5 12.5q-13 0 -28 -1t-30.5 -4t-30 -7t-24.5 -11l-29 -149q-2 -2 -5 -6t-5 -4h-59q-2 0 -6.5 2t-4.5 10v190q0 15 11 17q24 12 57 21.5 t67.5 15.5t69.5 9t64 3q59 0 110 -15.5t89 -42t59.5 -64.5t21.5 -85q0 -41 -13 -81t-32.5 -76.5t-43 -70.5t-44.5 -59q-20 -24 -41.5 -46.5t-48.5 -48t-58.5 -53.5t-74.5 -58h371q10 0 10 -11v-108q0 -10 -10 -10h-568q-6 0 -10 4l-20 39q-5 6 -3.5 9z" />
<glyph unicode="&#xb3;" horiz-adv-x="758" d="M92 598v201q0 10 12 10h56q10 0 14 -10l29 -148q28 -8 62 -14t69 -6q43 0 79 10t62.5 30.5t40.5 52.5t14 75q0 49 -19 78.5t-50 47t-70 24.5t-80 7h-22q-17 0 -33 -2q-12 0 -12 9v51q0 10 12 10q51 0 93 7t72 26.5t47 53.5t17 85q0 35 -12 59.5t-33.5 40t-50.5 22.5 t-59 7q-31 0 -61.5 -4t-59.5 -16l-27 -142q-4 -10 -14 -10h-53q-13 0 -13 10v193q0 10 13 14q55 19 113.5 29t117.5 10q47 0 100.5 -8t97.5 -30.5t72.5 -58.5t28.5 -93q0 -27 -11 -55.5t-30.5 -55.5t-45.5 -49.5t-54 -34.5q43 -6 78.5 -24.5t62.5 -44t42 -58.5t15 -70 q0 -71 -35.5 -123.5t-91 -86t-120 -50t-123.5 -16.5q-27 0 -55.5 2t-59.5 7t-59.5 11.5t-51.5 14.5q-14 4 -14 12z" />
<glyph unicode="&#xb4;" d="M444 1018l148 348q4 8 7 10t9 2h168q6 0 8 -6t0 -10l-266 -354q-4 -4 -8 -4h-55q-4 0 -8.5 5t-2.5 9z" />
<glyph unicode="&#xb5;" horiz-adv-x="1044" d="M143 -530v1421q0 10 11 10h133q10 0 10 -10v-481q0 -66 10 -122.5t35 -97t66 -63.5t102 -23t112.5 27t92.5 80v680q0 10 10 10h145q11 0 11 -10v-612q0 -54 3 -88.5t16 -58t41 -36t77 -20.5q10 -2 10 -10v-35q0 -6 -8 -11l-182 -34q-7 -2 -11 0t-10 6q-41 24 -58.5 57 t-25.5 66q-20 -29 -48 -55.5t-62.5 -46t-73.5 -31t-82 -11.5q-33 0 -63.5 9.5t-55 24.5t-42 32.5t-25.5 36.5q0 -41 3 -95.5t6 -111.5t8 -115.5t11 -109t12.5 -89t10.5 -59.5q2 -6 -2 -14t-13 -8l-157 -17q-6 0 -11.5 4t-5.5 11z" />
<glyph unicode="&#xb6;" horiz-adv-x="1161" d="M92 901q0 96 36 183t103.5 153t166 103.5t223.5 37.5h477q10 0 10 -10v-53q0 -10 -8 -10l-144 -15q-10 0 -10 -10v-1667q0 -10 -10 -10h-74q-10 0 -10 10v1663q0 10 -10 10h-111q-10 0 -10 -10v-1663q0 -10 -10 -10h-74q-10 0 -10 10v807q0 4 -4.5 7t-6.5 3 q-124 0 -221.5 38t-165 103.5t-102.5 150.5t-35 179z" />
<glyph unicode="&#xb7;" horiz-adv-x="512" d="M139 487q0 25 9.5 46.5t25.5 38t36.5 25.5t45.5 9t46.5 -9t37.5 -25.5t25.5 -38t9.5 -46.5q0 -24 -9.5 -44.5t-25.5 -37t-37.5 -25.5t-46.5 -9t-45.5 9t-36.5 25.5t-25.5 37t-9.5 44.5z" />
<glyph unicode="&#xb8;" d="M377 -434l10 49q0 2 3 5t7 3q29 0 58.5 4t54.5 16.5t40 33t15 51.5q0 18 -8 35.5t-24.5 28.5t-38 17.5t-45.5 4.5q-5 0 -8 2t1 10l86 180h58l-15 -104q66 -13 98.5 -56t32.5 -92q0 -51 -26.5 -89t-67.5 -63.5t-89 -39t-91 -13.5h-18q-13 0 -27 5q-2 0 -5 4t-1 8z" />
<glyph unicode="&#xb9;" horiz-adv-x="758" d="M113 1272q0 4 3 7t5 3l282 107q9 2 13 2h8h39q10 0 10 -11v-704q0 -10 10 -10l144 -15q10 0 10 -10v-51q0 -10 -10 -10h-453q-10 0 -10 10v51q0 10 10 10l150 15q10 0 10 10v561q0 10 -8 10l-189 -35q-10 0 -10 11z" />
<glyph unicode="&#xba;" horiz-adv-x="635" d="M33 846q0 63 21.5 115.5t59.5 91.5t91 59.5t117 20.5q69 0 121.5 -20.5t87 -57.5t53 -88.5t18.5 -112.5q0 -63 -21.5 -115.5t-60.5 -91.5t-91 -59.5t-116 -20.5q-69 0 -121.5 20.5t-87 58.5t-53 89t-18.5 111zM82 418v49q0 6 4 6h465q4 0 4 -6v-49q0 -6 -4 -6h-465 q-4 0 -4 6zM158 874q0 -47 9 -91t29.5 -77.5t53.5 -55t80 -21.5q41 0 68.5 16.5t45 44t25.5 63t8 74.5q0 45 -9 89.5t-29.5 78t-54.5 55t-81 21.5q-41 0 -67.5 -16.5t-45 -44t-25.5 -62.5t-7 -74z" />
<glyph unicode="&#xbb;" horiz-adv-x="823" d="M86 152l190 297q5 6 0 12l-190 297q-2 8 4 14l39 31q6 8 14 0l310 -326q-7 -2 2 -6v-33q-9 -4 -2 -6l-310 -326q-8 -8 -14 0l-39 31q-6 6 -4 15zM397 152l191 297q4 6 0 12l-191 297q-4 8 4 14l39 31q6 8 15 0l309 -326q-2 -2 2 -6v-33q-4 -4 -2 -6l-309 -326 q-2 -4 -9 -4q-4 0 -6 4l-39 31q-8 6 -4 15z" />
<glyph unicode="&#xbc;" horiz-adv-x="1720" d="M113 1272q0 4 3 7t5 3l282 107q9 2 13 2h8h39q10 0 10 -11v-704q0 -10 10 -10l144 -15q10 0 10 -10v-51q0 -10 -10 -10h-453q-10 0 -10 10v51q0 10 10 10l150 15q10 0 10 10v561q0 10 -8 10l-189 -35q-10 0 -10 11zM426 14l799 1403q6 10 16 4l54 -32q10 -9 2 -15 l-799 -1403q-2 -6 -6 -7t-8 1l-56 33q-10 6 -2 16zM937 211q1 2 3 4l496 598q4 2 7 3t5 1l45 -6q8 -4 8 -10v-516q0 -2 1 -5.5t5 -3.5h135q7 0 7 -4v-104q0 -4 -7 -4h-135q-6 0 -6 -8v-174q0 -11 -10 -11h-119q-10 0 -10 11v174q0 8 -8 8h-391q-7 0 -9 6l-16 35q-2 4 -1 6z M1092 276h260q10 0 10 11v315z" />
<glyph unicode="&#xbd;" horiz-adv-x="1720" d="M113 1272q0 4 3 7t5 3l282 107q9 2 13 2h8h39q10 0 10 -11v-704q0 -10 10 -10l144 -15q10 0 10 -10v-51q0 -10 -10 -10h-453q-10 0 -10 10v51q0 10 10 10l150 15q10 0 10 10v561q0 10 -8 10l-189 -35q-10 0 -10 11zM426 14l799 1403q6 10 16 4l54 -32q10 -9 2 -15 l-799 -1403q-2 -6 -6 -7t-8 1l-56 33q-10 6 -2 16zM1026.5 52q1.5 3 7.5 7q92 68 169.5 135.5t147.5 149.5q19 22 36 51t30.5 59.5t20.5 63t7 67.5q0 33 -9 62.5t-29.5 50t-50 33t-70.5 12.5q-13 0 -28 -1t-30.5 -4t-30 -7t-24.5 -11l-29 -149q-2 -2 -5 -6t-5 -4h-59 q-2 0 -6.5 2t-4.5 10v190q0 15 11 17q24 12 57 21.5t67.5 15.5t69.5 9t64 3q59 0 110 -15.5t89 -42t59.5 -64.5t21.5 -85q0 -41 -13 -81t-32.5 -76.5t-43 -70.5t-44.5 -59q-20 -24 -41.5 -46.5t-48.5 -48t-58.5 -53.5t-74.5 -58h371q10 0 10 -11v-108q0 -10 -10 -10h-568 q-6 0 -10 4l-20 39q-5 6 -3.5 9z" />
<glyph unicode="&#xbe;" horiz-adv-x="1720" d="M92 598v201q0 10 12 10h56q10 0 14 -10l29 -148q28 -8 62 -14t69 -6q43 0 79 10t62.5 30.5t40.5 52.5t14 75q0 49 -19 78.5t-50 47t-70 24.5t-80 7h-22q-17 0 -33 -2q-12 0 -12 9v51q0 10 12 10q51 0 93 7t72 26.5t47 53.5t17 85q0 35 -12 59.5t-33.5 40t-50.5 22.5 t-59 7q-31 0 -61.5 -4t-59.5 -16l-27 -142q-4 -10 -14 -10h-53q-13 0 -13 10v193q0 10 13 14q55 19 113.5 29t117.5 10q47 0 100.5 -8t97.5 -30.5t72.5 -58.5t28.5 -93q0 -27 -11 -55.5t-30.5 -55.5t-45.5 -49.5t-54 -34.5q43 -6 78.5 -24.5t62.5 -44t42 -58.5t15 -70 q0 -71 -35.5 -123.5t-91 -86t-120 -50t-123.5 -16.5q-27 0 -55.5 2t-59.5 7t-59.5 11.5t-51.5 14.5q-14 4 -14 12zM426 14l799 1403q6 10 16 4l54 -32q10 -9 2 -15l-799 -1403q-2 -6 -6 -7t-8 1l-56 33q-10 6 -2 16zM937 211q1 2 3 4l496 598q4 2 7 3t5 1l45 -6q8 -4 8 -10 v-516q0 -2 1 -5.5t5 -3.5h135q7 0 7 -4v-104q0 -4 -7 -4h-135q-6 0 -6 -8v-174q0 -11 -10 -11h-119q-10 0 -10 11v174q0 8 -8 8h-391q-7 0 -9 6l-16 35q-2 4 -1 6zM1092 276h260q10 0 10 11v315z" />
<glyph unicode="&#xbf;" horiz-adv-x="801" d="M74 -217q0 70 28.5 127t69.5 108.5t88 100.5t86 106q39 62 64.5 143t25.5 177q0 6 4 9t13 3h51q8 0 12 -3t4 -9q2 -15 3 -28t1 -28q0 -57 -6 -105t-19.5 -91t-31.5 -82t-41 -77t-51.5 -76t-53 -77.5t-41 -80.5t-16.5 -82q0 -62 16.5 -108t45 -75.5t67.5 -45t88 -15.5 q27 0 58.5 7t56.5 20q6 4 10 16l29 152q0 4 3 6t7 2h64q10 0 10 -8v-228q0 -8 -10 -10q-68 -23 -132.5 -37t-144.5 -14q-72 0 -136.5 17.5t-113.5 54t-78.5 94t-29.5 137.5zM365 807q0 22 9 41.5t24.5 35t36 25t42.5 9.5q23 0 43.5 -9.5t34.5 -25t23.5 -35t9.5 -41.5 q0 -23 -9.5 -43.5t-23.5 -35.5t-34.5 -24.5t-43.5 -9.5q-22 0 -42.5 9.5t-36 24.5t-24.5 35.5t-9 43.5z" />
<glyph unicode="&#xc0;" horiz-adv-x="1454" d="M0 10v53q0 11 10 11l168 16q5 1 8 6l521 1311q4 6 8 6h51q5 -1 8 -6l479 -1309q2 -6 9 -6l163 -18q9 0 9 -11v-53q0 -10 -11 -10h-526q-10 0 -10 10v53q0 11 10 11l160 16q6 0 8 4t0 10l-152 402q-4 6 -8 6h-446q-5 -1 -8 -6l-162 -406q-5 -13 10 -14l154 -12 q10 -1 10 -11v-53q0 -10 -10 -10h-443q-10 0 -10 10zM489 612q-2 -4 -2 -7q0 -7 11 -7h370q12 0 12 8q0 3 -1 6l-181 490q-4 6 -8 6q-6 0 -8 -6zM427 1765.5q3 6.5 9 6.5h179q12 0 20 -11l145 -272q5 -4 2.5 -9t-8.5 -5h-61q-4 0 -10 3t-11 5l-262 272q-6 4 -3 10.5z" />
<glyph unicode="&#xc1;" horiz-adv-x="1454" d="M0 10v53q0 11 10 11l168 16q5 1 8 6l521 1311q4 6 8 6h51q5 -1 8 -6l479 -1309q2 -6 9 -6l163 -18q9 0 9 -11v-53q0 -10 -11 -10h-526q-10 0 -10 10v53q0 11 10 11l160 16q6 0 8 4t0 10l-152 402q-4 6 -8 6h-446q-5 -1 -8 -6l-162 -406q-5 -13 10 -14l154 -12 q10 -1 10 -11v-53q0 -10 -10 -10h-443q-10 0 -10 10zM489 612q-2 -4 -2 -7q0 -7 11 -7h370q12 0 12 8q0 3 -1 6l-181 490q-4 6 -8 6q-6 0 -8 -6zM691.5 1480q-2.5 5 2.5 9l145 272q8 11 20 11h179q6 0 9 -6.5t-3 -10.5l-262 -272q-5 -2 -11 -5t-10 -3h-61q-6 0 -8.5 5z" />
<glyph unicode="&#xc2;" horiz-adv-x="1454" d="M0 10v53q0 11 10 11l168 16q5 1 8 6l521 1311q4 6 8 6h51q5 -1 8 -6l479 -1309q2 -6 9 -6l163 -18q9 0 9 -11v-53q0 -10 -11 -10h-526q-10 0 -10 10v53q0 11 10 11l160 16q6 0 8 4t0 10l-152 402q-4 6 -8 6h-446q-5 -1 -8 -6l-162 -406q-5 -13 10 -14l154 -12 q10 -1 10 -11v-53q0 -10 -10 -10h-443q-10 0 -10 10zM489 612q-2 -4 -2 -7q0 -7 11 -7h370q12 0 12 8q0 3 -1 6l-181 490q-4 6 -8 6q-6 0 -8 -6zM480 1480q-1 5 1 9l166 272q8 11 20 11h140q14 0 20 -11l166 -272q2 -4 1 -9t-7 -5h-62q-6 0 -11 3t-9 5l-168 168l-168 -168 q-4 -4 -9 -6t-11 -2h-62q-6 0 -7 5z" />
<glyph unicode="&#xc3;" horiz-adv-x="1454" d="M0 10v53q0 11 10 11l168 16q5 1 8 6l521 1311q4 6 8 6h51q5 -1 8 -6l479 -1309q2 -6 9 -6l163 -18q9 0 9 -11v-53q0 -10 -11 -10h-526q-10 0 -10 10v53q0 11 10 11l160 16q6 0 8 4t0 10l-152 402q-4 6 -8 6h-446q-5 -1 -8 -6l-162 -406q-5 -13 10 -14l154 -12 q10 -1 10 -11v-53q0 -10 -10 -10h-443q-10 0 -10 10zM489 612q-2 -4 -2 -7q0 -7 11 -7h370q12 0 12 8q0 3 -1 6l-181 490q-4 6 -8 6q-6 0 -8 -6zM450 1554q-6 11 2 17q62 65 120.5 107t113.5 42q24 0 49 -11t49.5 -26.5t48 -26.5t43.5 -11q37 0 70 18t72 53q10 6 14 0 l35 -41q6 -8 0 -14q-64 -68 -122 -110t-114 -42q-22 0 -46.5 12.5t-49.5 26t-49.5 25.5t-44.5 12q-31 0 -64 -14.5t-76 -54.5q-4 -5 -9 -7t-7 4z" />
<glyph unicode="&#xc4;" horiz-adv-x="1454" d="M0 10v53q0 11 10 11l168 16q5 1 8 6l521 1311q4 6 8 6h51q5 -1 8 -6l479 -1309q2 -6 9 -6l163 -18q9 0 9 -11v-53q0 -10 -11 -10h-526q-10 0 -10 10v53q0 11 10 11l160 16q6 0 8 4t0 10l-152 402q-4 6 -8 6h-446q-5 -1 -8 -6l-162 -406q-5 -13 10 -14l154 -12 q10 -1 10 -11v-53q0 -10 -10 -10h-443q-10 0 -10 10zM489 612q-2 -4 -2 -7q0 -7 11 -7h370q12 0 12 8q0 3 -1 6l-181 490q-4 6 -8 6q-6 0 -8 -6zM439 1602q0 20 8 39.5t21.5 33t33 21.5t39.5 8q23 0 41.5 -8t31.5 -21.5t21.5 -33t8.5 -39.5q0 -21 -8.5 -39.5t-21.5 -31.5 t-31.5 -21.5t-41.5 -8.5q-20 0 -39.5 8.5t-33 21.5t-21.5 31.5t-8 39.5zM832 1602q0 20 8.5 39.5t21.5 33t31.5 21.5t41.5 8q20 0 39.5 -8t33 -21.5t21.5 -33t8 -39.5q0 -21 -8 -39.5t-21.5 -31.5t-33 -21.5t-39.5 -8.5q-23 0 -41.5 8.5t-31.5 21.5t-21.5 31.5t-8.5 39.5z " />
<glyph unicode="&#xc5;" horiz-adv-x="1454" d="M0 10v53q0 11 10 11l168 16q5 1 8 6l521 1311q4 6 8 6h51q5 -1 8 -6l479 -1309q2 -6 9 -6l163 -18q9 0 9 -11v-53q0 -10 -11 -10h-526q-10 0 -10 10v53q0 11 10 11l160 16q6 0 8 4t0 10l-152 402q-4 6 -8 6h-446q-5 -1 -8 -6l-162 -406q-5 -13 10 -14l154 -12 q10 -1 10 -11v-53q0 -10 -10 -10h-443q-10 0 -10 10zM489 612q-2 -4 -2 -7q0 -7 11 -7h370q12 0 12 8q0 3 -1 6l-181 490q-4 6 -8 6q-6 0 -8 -6zM530 1606q0 35 16.5 64.5t45 52t65.5 36t80 13.5t81 -13.5t65.5 -36t45 -52t17.5 -64.5t-17.5 -64.5t-45 -52t-65.5 -35 t-81 -12.5t-80 12.5t-65.5 35t-45 52t-16.5 64.5zM639 1606q0 -43 26.5 -71.5t71.5 -28.5t72.5 28.5t27.5 71.5t-27.5 73t-72.5 30t-71.5 -30t-26.5 -73z" />
<glyph unicode="&#xc6;" horiz-adv-x="1939" d="M0 10v53q0 11 8 11l168 16q4 0 8 6l785 1198l-109 11q-10 0 -10 10v53q0 10 10 10h948q11 0 11 -10v-321q0 -11 -11 -11h-75q-2 0 -6.5 2t-4.5 6l-41 232q0 4 -4 6t-6 2h-448q-11 0 -11 -10v-547q0 -10 11 -10h273q10 0 10 8l20 166q0 8 10 8h55q11 0 11 -10v-445 q0 -10 -11 -10h-55q-10 0 -10 8l-20 176q0 9 -10 9h-273q-11 0 -11 -11v-512q0 -10 11 -10h477q4 0 7 2t3 6l41 228q0 4 3 6t7 2h76q10 0 10 -10v-318q0 -10 -10 -10h-987q-10 0 -10 10v53q0 11 10 11l174 16q10 0 10 10v516q0 11 -10 11h-377q-4 0 -10 -6l-344 -521 q-2 -6 2 -10t8 -4l152 -12q6 0 9 -3t3 -8v-53q0 -10 -10 -10h-445q-6 0 -9 2t-3 8zM704.5 721q2.5 -4 6.5 -4h313q10 0 10 10v496q0 6 -5 7t-11 -9l-313 -490q-3 -6 -0.5 -10z" />
<glyph unicode="&#xc7;" horiz-adv-x="1325" d="M78 686q0 115 28.5 213t81 179t124 142.5t157.5 103.5t185.5 63.5t203.5 21.5q37 0 84 -5t95 -12.5t94.5 -16.5t80.5 -15q11 -2 11 -10v-310q0 -10 -11 -10h-79q-5 0 -8 2t-3 6l-41 230q0 6 -8 10q-18 4 -46 11t-57.5 13.5t-61 10.5t-60.5 4q-137 0 -243.5 -42 t-179.5 -119t-111 -184.5t-38 -236.5q0 -135 40 -256t114 -213t178.5 -145t231.5 -53q22 0 54 2t63.5 6t62.5 10t53 18q8 5 8 11l41 231q0 2 3 5t8 3h79q11 0 11 -10v-309q0 -6 -11 -10q-34 -9 -74 -18t-88.5 -17t-104.5 -13.5t-122 -5.5l-10 -69q66 -13 98.5 -56t32.5 -92 q0 -51 -26.5 -89t-67.5 -63.5t-89 -39t-91 -13.5h-18q-13 0 -27 5q-2 0 -5.5 4t-1.5 8l11 49q0 2 4 5t6 3q29 0 58.5 4t54 16.5t40 33t15.5 51.5q0 18 -8 35.5t-24.5 28.5t-38 17.5t-46.5 4.5q-4 0 -6 2t0 10l70 147q-156 11 -280 69t-213 153.5t-136 221.5t-47 269z" />
<glyph unicode="&#xc8;" horiz-adv-x="1196" d="M76 10v53q0 11 10 11l174 16q10 0 10 10v1182q-4 6 -10 6l-174 17q-10 0 -10 10v53q0 10 10 10h979q10 0 10 -10v-321q0 -11 -10 -11h-76q-10 0 -10 8l-41 232q0 8 -10 8h-469q-10 0 -10 -10v-506q0 -10 10 -10h282q11 0 11 8l20 166q0 8 10 8h56q10 0 10 -10v-445 q0 -10 -10 -10h-56q-10 0 -10 8l-20 176q0 9 -11 9h-282q-10 0 -10 -11v-553q0 -10 10 -10h497q11 0 11 8l41 228q0 8 10 8h76q10 0 10 -10v-318q0 -10 -10 -10h-1008q-10 0 -10 10zM386 1765.5q3 6.5 9 6.5h179q12 0 20 -11l145 -272q5 -4 2.5 -9t-8.5 -5h-61q-4 0 -10 3 t-11 5l-262 272q-6 4 -3 10.5z" />
<glyph unicode="&#xc9;" horiz-adv-x="1196" d="M76 10v53q0 11 10 11l174 16q10 0 10 10v1182q-4 6 -10 6l-174 17q-10 0 -10 10v53q0 10 10 10h979q10 0 10 -10v-321q0 -11 -10 -11h-76q-10 0 -10 8l-41 232q0 8 -10 8h-469q-10 0 -10 -10v-506q0 -10 10 -10h282q11 0 11 8l20 166q0 8 10 8h56q10 0 10 -10v-445 q0 -10 -10 -10h-56q-10 0 -10 8l-20 176q0 9 -11 9h-282q-10 0 -10 -11v-553q0 -10 10 -10h497q11 0 11 8l41 228q0 8 10 8h76q10 0 10 -10v-318q0 -10 -10 -10h-1008q-10 0 -10 10zM528.5 1480q-2.5 5 2.5 9l145 272q8 11 20 11h179q6 0 9 -6.5t-3 -10.5l-262 -272 q-5 -2 -11 -5t-10 -3h-61q-6 0 -8.5 5z" />
<glyph unicode="&#xca;" horiz-adv-x="1196" d="M76 10v53q0 11 10 11l174 16q10 0 10 10v1182q-4 6 -10 6l-174 17q-10 0 -10 10v53q0 10 10 10h979q10 0 10 -10v-321q0 -11 -10 -11h-76q-10 0 -10 8l-41 232q0 8 -10 8h-469q-10 0 -10 -10v-506q0 -10 10 -10h282q11 0 11 8l20 166q0 8 10 8h56q10 0 10 -10v-445 q0 -10 -10 -10h-56q-10 0 -10 8l-20 176q0 9 -11 9h-282q-10 0 -10 -11v-553q0 -10 10 -10h497q11 0 11 8l41 228q0 8 10 8h76q10 0 10 -10v-318q0 -10 -10 -10h-1008q-10 0 -10 10zM378 1480q-1 5 1 9l166 272q8 11 20 11h140q14 0 20 -11l166 -272q2 -4 1 -9t-7 -5h-62 q-6 0 -11 3t-9 5l-168 168l-168 -168q-4 -4 -9 -6t-11 -2h-62q-6 0 -7 5z" />
<glyph unicode="&#xcb;" horiz-adv-x="1196" d="M76 10v53q0 11 10 11l174 16q10 0 10 10v1182q-4 6 -10 6l-174 17q-10 0 -10 10v53q0 10 10 10h979q10 0 10 -10v-321q0 -11 -10 -11h-76q-10 0 -10 8l-41 232q0 8 -10 8h-469q-10 0 -10 -10v-506q0 -10 10 -10h282q11 0 11 8l20 166q0 8 10 8h56q10 0 10 -10v-445 q0 -10 -10 -10h-56q-10 0 -10 8l-20 176q0 9 -11 9h-282q-10 0 -10 -11v-553q0 -10 10 -10h497q11 0 11 8l41 228q0 8 10 8h76q10 0 10 -10v-318q0 -10 -10 -10h-1008q-10 0 -10 10zM336 1602q0 20 8 39.5t21.5 33t33 21.5t39.5 8q23 0 41.5 -8t31.5 -21.5t21.5 -33 t8.5 -39.5q0 -21 -8.5 -39.5t-21.5 -31.5t-31.5 -21.5t-41.5 -8.5q-20 0 -39.5 8.5t-33 21.5t-21.5 31.5t-8 39.5zM729 1602q0 20 8.5 39.5t21.5 33t31.5 21.5t41.5 8q20 0 39.5 -8t33 -21.5t21.5 -33t8 -39.5q0 -21 -8 -39.5t-21.5 -31.5t-33 -21.5t-39.5 -8.5 q-23 0 -41.5 8.5t-31.5 21.5t-21.5 31.5t-8.5 39.5z" />
<glyph unicode="&#xcc;" horiz-adv-x="723" d="M76 10v53q0 11 10 11l174 16q10 0 10 10v1178q0 10 -10 10l-174 17q-10 0 -10 10v53q0 10 10 10h551q10 0 10 -10v-53q0 -10 -10 -10l-174 -17q-10 0 -10 -10v-1178q0 -10 10 -10l174 -16q10 0 10 -11v-53q0 -10 -10 -10h-551q-10 0 -10 10zM70 1765.5q3 6.5 9 6.5h179 q12 0 20 -11l145 -272q5 -4 2.5 -9t-8.5 -5h-61q-4 0 -10 3t-11 5l-262 272q-6 4 -3 10.5z" />
<glyph unicode="&#xcd;" horiz-adv-x="723" d="M76 10v53q0 11 10 11l174 16q10 0 10 10v1178q0 10 -10 10l-174 17q-10 0 -10 10v53q0 10 10 10h551q10 0 10 -10v-53q0 -10 -10 -10l-174 -17q-10 0 -10 -10v-1178q0 -10 10 -10l174 -16q10 0 10 -11v-53q0 -10 -10 -10h-551q-10 0 -10 10zM295.5 1480q-2.5 5 2.5 9 l145 272q8 11 20 11h179q6 0 9 -6.5t-3 -10.5l-262 -272q-5 -2 -11 -5t-10 -3h-61q-6 0 -8.5 5z" />
<glyph unicode="&#xce;" horiz-adv-x="723" d="M76 10v53q0 11 10 11l174 16q10 0 10 10v1178q0 10 -10 10l-174 17q-10 0 -10 10v53q0 10 10 10h551q10 0 10 -10v-53q0 -10 -10 -10l-174 -17q-10 0 -10 -10v-1178q0 -10 10 -10l174 -16q10 0 10 -11v-53q0 -10 -10 -10h-551q-10 0 -10 10zM104 1480q-1 5 1 9l166 272 q8 11 20 11h140q14 0 20 -11l166 -272q2 -4 1 -9t-7 -5h-62q-6 0 -11 3t-9 5l-168 168l-168 -168q-4 -4 -9 -6t-11 -2h-62q-6 0 -7 5z" />
<glyph unicode="&#xcf;" horiz-adv-x="723" d="M76 10v53q0 11 10 11l174 16q10 0 10 10v1178q0 10 -10 10l-174 17q-10 0 -10 10v53q0 10 10 10h551q10 0 10 -10v-53q0 -10 -10 -10l-174 -17q-10 0 -10 -10v-1178q0 -10 10 -10l174 -16q10 0 10 -11v-53q0 -10 -10 -10h-551q-10 0 -10 10zM62 1602q0 20 8 39.5t21.5 33 t33 21.5t39.5 8q23 0 41.5 -8t31.5 -21.5t21.5 -33t8.5 -39.5q0 -21 -8.5 -39.5t-21.5 -31.5t-31.5 -21.5t-41.5 -8.5q-20 0 -39.5 8.5t-33 21.5t-21.5 31.5t-8 39.5zM455 1602q0 20 8.5 39.5t21.5 33t31.5 21.5t41.5 8q20 0 39.5 -8t33 -21.5t21.5 -33t8 -39.5 q0 -21 -8 -39.5t-21.5 -31.5t-33 -21.5t-39.5 -8.5q-23 0 -41.5 8.5t-31.5 21.5t-21.5 31.5t-8.5 39.5z" />
<glyph unicode="&#xd0;" horiz-adv-x="1483" d="M76 10v62q0 10 10 10l174 16q10 0 10 11v563q0 4 -3 7t-7 3h-174q-10 0 -10 10v74q0 10 10 10h174q2 0 6 2t4 8v484q0 10 -10 10l-174 16q-10 0 -10 11v61q0 10 10 10h551q176 0 318.5 -42t241.5 -126t153.5 -212t54.5 -302q0 -190 -58.5 -323t-164 -215t-252 -120 t-324.5 -38h-520q-10 0 -10 10zM449 104q0 -10 10 -10h141q156 0 270.5 26.5t190.5 89t112.5 164t36.5 253.5q0 149 -32.5 271t-102 208t-178.5 132t-260 46h-178q-10 0 -10 -10v-488q0 -10 10 -10h319q10 0 10 -10v-74q0 -10 -10 -10h-319q-2 0 -6 -2t-4 -8v-568z" />
<glyph unicode="&#xd1;" horiz-adv-x="1487" d="M41 1307v61q0 10 10 10h361q5 -1 8 -4l760 -1005v901q0 10 -9 10l-151 16q-10 0 -10 11v61q0 10 10 10h426q10 0 10 -10v-61q0 -11 -10 -11l-154 -16q-10 0 -10 -10v-1276q0 -10 -12 -10h-39q-5 1 -10 6l-883 1169v-1050q0 -11 8 -11l150 -16q10 0 10 -10v-62 q0 -10 -10 -10h-426q-11 0 -11 10v62q0 10 11 10l155 16q11 0 11 11v1161q0 10 -11 10l-174 16q-10 0 -10 11zM459 1554q-6 11 2 17q62 65 120.5 107t113.5 42q24 0 49 -11t49.5 -26.5t48 -26.5t43.5 -11q37 0 70 18t72 53q10 6 14 0l35 -41q6 -8 0 -14q-64 -68 -122 -110 t-114 -42q-22 0 -46.5 12.5t-49.5 26t-49.5 25.5t-44.5 12q-31 0 -64 -14.5t-76 -54.5q-4 -5 -9 -7t-7 4z" />
<glyph unicode="&#xd2;" horiz-adv-x="1548" d="M78 686q0 312 195 516q199 207 509 207t501 -204q187 -199 187 -511q0 -310 -188 -513q-193 -210 -500 -210q-308 0 -506 203t-198 512zM276 735q0 -171 58 -317q65 -162 190 -258.5t285 -96.5q231 0 356 186q107 161 107 404q0 272 -135 461q-145 203 -379 203 q-230 0 -363 -181q-119 -163 -119 -401zM484 1765.5q3 6.5 9 6.5h179q12 0 20 -11l145 -272q5 -4 2.5 -9t-8.5 -5h-61q-4 0 -10 3t-11 5l-262 272q-6 4 -3 10.5z" />
<glyph unicode="&#xd3;" horiz-adv-x="1548" d="M78 686q0 312 195 516q199 207 509 207t501 -204q187 -199 187 -511q0 -310 -188 -513q-193 -210 -500 -210q-308 0 -506 203t-198 512zM276 735q0 -171 58 -317q65 -162 190 -258.5t285 -96.5q231 0 356 186q107 161 107 404q0 272 -135 461q-145 203 -379 203 q-230 0 -363 -181q-119 -163 -119 -401zM708.5 1480q-2.5 5 2.5 9l145 272q8 11 20 11h179q6 0 9 -6.5t-3 -10.5l-262 -272q-5 -2 -11 -5t-10 -3h-61q-6 0 -8.5 5z" />
<glyph unicode="&#xd4;" horiz-adv-x="1548" d="M78 686q0 312 195 516q199 207 509 207t501 -204q187 -199 187 -511q0 -310 -188 -513q-193 -210 -500 -210q-308 0 -506 203t-198 512zM276 735q0 -171 58 -317q65 -162 190 -258.5t285 -96.5q231 0 356 186q107 161 107 404q0 272 -135 461q-145 203 -379 203 q-230 0 -363 -181q-119 -163 -119 -401zM517 1480q-1 5 1 9l166 272q8 11 20 11h140q14 0 20 -11l166 -272q2 -4 1 -9t-7 -5h-62q-6 0 -11 3t-9 5l-168 168l-168 -168q-4 -4 -9 -6t-11 -2h-62q-6 0 -7 5z" />
<glyph unicode="&#xd5;" horiz-adv-x="1548" d="M78 686q0 312 195 516q199 207 509 207t501 -204q187 -199 187 -511q0 -310 -188 -513q-193 -210 -500 -210q-308 0 -506 203t-198 512zM276 735q0 -171 58 -317q65 -162 190 -258.5t285 -96.5q231 0 356 186q107 161 107 404q0 272 -135 461q-145 203 -379 203 q-230 0 -363 -181q-119 -163 -119 -401zM475 1554q-6 11 2 17q62 65 120.5 107t113.5 42q24 0 49 -11t49.5 -26.5t48 -26.5t43.5 -11q37 0 70 18t72 53q10 6 14 0l35 -41q6 -8 0 -14q-64 -68 -122 -110t-114 -42q-22 0 -46.5 12.5t-49.5 26t-49.5 25.5t-44.5 12 q-31 0 -64 -14.5t-76 -54.5q-4 -5 -9 -7t-7 4z" />
<glyph unicode="&#xd6;" horiz-adv-x="1548" d="M78 686q0 312 195 516q199 207 509 207t501 -204q187 -199 187 -511q0 -310 -188 -513q-193 -210 -500 -210q-308 0 -506 203t-198 512zM276 735q0 -171 58 -317q65 -162 190 -258.5t285 -96.5q231 0 356 186q107 161 107 404q0 272 -135 461q-145 203 -379 203 q-230 0 -363 -181q-119 -163 -119 -401zM476 1602q0 20 8 39.5t21.5 33t33 21.5t39.5 8q23 0 41.5 -8t31.5 -21.5t21.5 -33t8.5 -39.5q0 -21 -8.5 -39.5t-21.5 -31.5t-31.5 -21.5t-41.5 -8.5q-20 0 -39.5 8.5t-33 21.5t-21.5 31.5t-8 39.5zM869 1602q0 20 8.5 39.5t21.5 33 t31.5 21.5t41.5 8q20 0 39.5 -8t33 -21.5t21.5 -33t8 -39.5q0 -21 -8 -39.5t-21.5 -31.5t-33 -21.5t-39.5 -8.5q-23 0 -41.5 8.5t-31.5 21.5t-21.5 31.5t-8.5 39.5z" />
<glyph unicode="&#xd7;" d="M90 119q0 4 2 6l348 346l-348 346q-6 10 0 19l55 55q9 4 19 0l346 -348l346 348q10 4 19 0l55 -55q6 -9 0 -19l-348 -346l348 -346q6 -10 0 -19l-53 -51q2 -2 0 -3t-6.5 -2t-8.5 -1t-6 2l-346 348l-346 -348q-10 -6 -19 0l-51 51q-2 -2 -3 1t-2 7.5t-1 8.5z" />
<glyph unicode="&#xd8;" horiz-adv-x="1548" d="M78 686q0 154 51 286t144.5 229t223.5 152.5t285 55.5q138 0 250.5 -41t198.5 -115l108 125q2 2 7.5 3t7.5 -1l55 -47q6 -8 0 -14l-113 -129q84 -96 129 -221t45 -275q0 -151 -49 -283t-139 -229.5t-217 -154t-283 -56.5q-131 0 -240.5 38t-197.5 106l-115 -131 q-6 -7 -14 -2l-55 47q-6 8 0 14l116 131q-94 96 -146 227t-52 285zM276 735q0 -119 29 -228.5t86 -199.5l731 826q-65 86 -156.5 135t-207.5 49q-115 0 -204 -46t-150.5 -125t-94.5 -185.5t-33 -225.5zM446 231q68 -77 159 -122.5t204 -45.5q117 0 204 47.5t144 128t86 187 t29 227.5q0 111 -23.5 213.5t-72.5 188.5z" />
<glyph unicode="&#xd9;" horiz-adv-x="1470" d="M31 1315v53q0 10 10 10h555q10 0 10 -10v-53q0 -10 -10 -10l-184 -17q-11 0 -11 -10v-739q0 -153 17 -236q13 -64 53 -110q107 -123 309 -123q217 0 324 172q34 54 45 169q6 62 6 150v717q0 10 -10 10l-174 17q-10 0 -10 10v53q0 10 10 10h475q10 0 10 -10v-53 q0 -10 -10 -10l-168 -17q-10 0 -10 -10v-709q0 -336 -138 -469q-134 -129 -378 -129q-275 0 -414 138q-61 61 -84 127q-31 89 -31 229v813q0 10 -10 10l-172 17q-10 0 -10 10zM476 1765.5q3 6.5 9 6.5h179q12 0 20 -11l145 -272q5 -4 2.5 -9t-8.5 -5h-61q-4 0 -10 3t-11 5 l-262 272q-6 4 -3 10.5z" />
<glyph unicode="&#xda;" horiz-adv-x="1470" d="M31 1315v53q0 10 10 10h555q10 0 10 -10v-53q0 -10 -10 -10l-184 -17q-11 0 -11 -10v-739q0 -153 17 -236q13 -64 53 -110q107 -123 309 -123q217 0 324 172q34 54 45 169q6 62 6 150v717q0 10 -10 10l-174 17q-10 0 -10 10v53q0 10 10 10h475q10 0 10 -10v-53 q0 -10 -10 -10l-168 -17q-10 0 -10 -10v-709q0 -336 -138 -469q-134 -129 -378 -129q-275 0 -414 138q-61 61 -84 127q-31 89 -31 229v813q0 10 -10 10l-172 17q-10 0 -10 10zM700.5 1480q-2.5 5 2.5 9l145 272q8 11 20 11h179q6 0 9 -6.5t-3 -10.5l-262 -272q-5 -2 -11 -5 t-10 -3h-61q-6 0 -8.5 5z" />
<glyph unicode="&#xdb;" horiz-adv-x="1470" d="M31 1315v53q0 10 10 10h555q10 0 10 -10v-53q0 -10 -10 -10l-184 -17q-11 0 -11 -10v-739q0 -153 17 -236q13 -64 53 -110q107 -123 309 -123q217 0 324 172q34 54 45 169q6 62 6 150v717q0 10 -10 10l-174 17q-10 0 -10 10v53q0 10 10 10h475q10 0 10 -10v-53 q0 -10 -10 -10l-168 -17q-10 0 -10 -10v-709q0 -336 -138 -469q-134 -129 -378 -129q-275 0 -414 138q-61 61 -84 127q-31 89 -31 229v813q0 10 -10 10l-172 17q-10 0 -10 10zM499 1480q-1 5 1 9l166 272q8 11 20 11h140q14 0 20 -11l166 -272q2 -4 1 -9t-7 -5h-62 q-6 0 -11 3t-9 5l-168 168l-168 -168q-4 -4 -9 -6t-11 -2h-62q-6 0 -7 5z" />
<glyph unicode="&#xdc;" horiz-adv-x="1470" d="M31 1315v53q0 10 10 10h555q10 0 10 -10v-53q0 -10 -10 -10l-184 -17q-11 0 -11 -10v-739q0 -153 17 -236q13 -64 53 -110q107 -123 309 -123q217 0 324 172q34 54 45 169q6 62 6 150v717q0 10 -10 10l-174 17q-10 0 -10 10v53q0 10 10 10h475q10 0 10 -10v-53 q0 -10 -10 -10l-168 -17q-10 0 -10 -10v-709q0 -336 -138 -469q-134 -129 -378 -129q-275 0 -414 138q-61 61 -84 127q-31 89 -31 229v813q0 10 -10 10l-172 17q-10 0 -10 10zM467 1602q0 20 8 39.5t21.5 33t33 21.5t39.5 8q23 0 41.5 -8t31.5 -21.5t21.5 -33t8.5 -39.5 q0 -21 -8.5 -39.5t-21.5 -31.5t-31.5 -21.5t-41.5 -8.5q-20 0 -39.5 8.5t-33 21.5t-21.5 31.5t-8 39.5zM860 1602q0 20 8.5 39.5t21.5 33t31.5 21.5t41.5 8q20 0 39.5 -8t33 -21.5t21.5 -33t8 -39.5q0 -21 -8 -39.5t-21.5 -31.5t-33 -21.5t-39.5 -8.5q-23 0 -41.5 8.5 t-31.5 21.5t-21.5 31.5t-8.5 39.5z" />
<glyph unicode="&#xdd;" horiz-adv-x="1382" d="M20 1315v53q0 10 11 10h544q11 0 11 -10v-53q0 -10 -11 -10l-147 -13q-6 0 -8 -6t0 -10l328 -594l342 594q2 2 2 5q0 11 -11 11l-141 13q-10 0 -10 10v53q0 10 10 10h424q10 0 10 -10v-53q0 -10 -10 -10l-154 -15q-5 -1 -8 -4l-407 -698q-2 -3 -2 -10v-478q0 -10 10 -10 l174 -16q10 0 10 -11v-53q0 -10 -10 -10h-547q-10 0 -10 10v53q0 11 10 11l174 16q10 0 10 10v467q0 8 -2 13l-399 704q-4 4 -8 4l-174 17q-11 0 -11 10zM659.5 1480q-2.5 5 2.5 9l145 272q8 11 20 11h179q6 0 9 -6.5t-3 -10.5l-262 -272q-5 -2 -11 -5t-10 -3h-61 q-6 0 -8.5 5z" />
<glyph unicode="&#xde;" horiz-adv-x="1208" d="M76 10v53q0 11 10 11l174 16q10 0 10 10v1178q0 10 -10 10l-174 17q-10 0 -10 10v53q0 10 10 10h551q10 0 10 -10v-53q0 -10 -10 -10l-174 -17q-10 0 -10 -10v-127q0 -10 10 -10h135q88 0 162 -7.5t134 -27t107.5 -53t81.5 -84.5q33 -49 48.5 -106.5t15.5 -112.5 q0 -82 -39 -155t-105.5 -127t-156.5 -87t-195 -33l-198 35v-283q0 -10 10 -10l174 -16q10 0 10 -11v-53q0 -10 -10 -10h-551q-10 0 -10 10zM453 455q0 -11 10 -11h119q174 0 268 78t94 240q0 82 -30.5 136t-83 87t-121 47.5t-146.5 14.5h-100q-10 0 -10 -11v-581z" />
<glyph unicode="&#xdf;" horiz-adv-x="1282" d="M37 10v51q0 11 10 11l160 14q10 0 10 10v682q0 4 -3 6t-7 2h-152q-10 0 -10 11v51q0 10 10 10l152 19q10 0 10 10v74q0 75 5 130.5t17.5 98.5t30 74.5t43.5 60.5q56 59 139 90t173 31q71 0 138.5 -19.5t121 -62.5t85 -115.5t31.5 -181.5q0 -53 -10 -112.5t-30 -127.5 q-5 -6 -9 -4q-20 6 -43.5 9.5t-40.5 3.5q-24 0 -49.5 -7.5t-46 -24t-33 -40t-12.5 -57.5q0 -31 9 -55.5t26.5 -44t41 -34t50.5 -24.5l86 -35q43 -18 82 -43t67.5 -55.5t46 -68.5t17.5 -83q0 -67 -27.5 -121.5t-72.5 -92.5t-101.5 -58.5t-113.5 -20.5q-62 0 -122.5 13.5 t-119.5 33.5q-10 2 -10 11v237q0 8 10 8h63q5 0 8 -3t3 -5l32 -164q0 -4 3.5 -7t5.5 -5q28 -14 64 -24.5t69 -10.5q30 0 57 11.5t46.5 31t30.5 46t11 59.5q0 30 -10 55t-28.5 44.5t-43 32.5t-51.5 25l-92 37q-41 17 -77 40.5t-62.5 55t-42 72.5t-15.5 92q0 56 21.5 101 t57.5 76.5t81 52t94 28.5q8 39 12.5 74t4.5 68q0 139 -65.5 215t-178.5 76q-64 0 -104.5 -22.5t-64.5 -63.5t-33 -95.5t-9 -117.5v-953q0 -10 10 -10l109 -14q10 0 10 -11v-51q0 -10 -10 -10h-455q-10 0 -10 10z" />
<glyph unicode="&#xe0;" horiz-adv-x="907" d="M61 190q0 169 172 248q52 24 106 35q120 25 218 33v158q0 159 -156 159q-89 0 -155 -32q-6 -5 -10 -17l-29 -151q0 -9 -10 -9h-64q-10 0 -10 9v227q0 6 10 10q162 58 307 58q205 0 266 -123q23 -46 23 -117v-553q0 -8 8 -12l129 -37q10 -6 11 -10v-35q-4 -11 -9 -11 l-270 -36q-10 0 -10 10l-17 96q-129 -119 -280 -119q-157 0 -212 129q-18 42 -18 90zM244 229q0 -131 131 -131q38 0 92 19q27 10 80 37q10 7 10 12v260q-105 -6 -158 -23q-14 -4 -49 -16q-106 -36 -106 -158zM151 1366q0 12 9 12h168q11 0 16 -12l148 -348q6 -14 -11 -14 h-55q-5 1 -8 4l-266 354q-1 2 -1 4z" />
<glyph unicode="&#xe1;" horiz-adv-x="907" d="M61 190q0 169 172 248q52 24 106 35q120 25 218 33v158q0 159 -156 159q-89 0 -155 -32q-6 -5 -10 -17l-29 -151q0 -9 -10 -9h-64q-10 0 -10 9v227q0 6 10 10q162 58 307 58q205 0 266 -123q23 -46 23 -117v-553q0 -8 8 -12l129 -37q10 -6 11 -10v-35q-4 -11 -9 -11 l-270 -36q-10 0 -10 10l-17 96q-129 -119 -280 -119q-157 0 -212 129q-18 42 -18 90zM244 229q0 -131 131 -131q38 0 92 19q27 10 80 37q10 7 10 12v260q-105 -6 -158 -23q-14 -4 -49 -16q-106 -36 -106 -158zM356 1018l148 348q4 8 7 10t9 2h168q6 0 8 -6t0 -10l-266 -354 q-4 -4 -8 -4h-55q-4 0 -8.5 5t-2.5 9z" />
<glyph unicode="&#xe2;" horiz-adv-x="907" d="M61 190q0 169 172 248q52 24 106 35q120 25 218 33v158q0 159 -156 159q-89 0 -155 -32q-6 -5 -10 -17l-29 -151q0 -9 -10 -9h-64q-10 0 -10 9v227q0 6 10 10q162 58 307 58q205 0 266 -123q23 -46 23 -117v-553q0 -8 8 -12l129 -37q10 -6 11 -10v-35q-4 -11 -9 -11 l-270 -36q-10 0 -10 10l-17 96q-129 -119 -280 -119q-157 0 -212 129q-18 42 -18 90zM244 229q0 -131 131 -131q38 0 92 19q27 10 80 37q10 7 10 12v260q-105 -6 -158 -23q-14 -4 -49 -16q-106 -36 -106 -158zM170 1009q-2 5 0 9l174 354q2 6 8 6h148q6 0 8 -6l174 -354 q2 -4 0 -9t-8 -5h-58q-2 0 -6 4l-182 219h-4l-182 -219q-4 -4 -6 -4h-58q-6 0 -8 5z" />
<glyph unicode="&#xe3;" horiz-adv-x="907" d="M61 190q0 169 172 248q52 24 106 35q120 25 218 33v158q0 159 -156 159q-89 0 -155 -32q-6 -5 -10 -17l-29 -151q0 -9 -10 -9h-64q-10 0 -10 9v227q0 6 10 10q162 58 307 58q205 0 266 -123q23 -46 23 -117v-553q0 -8 8 -12l129 -37q10 -6 11 -10v-35q-4 -11 -9 -11 l-270 -36q-10 0 -10 10l-17 96q-129 -119 -280 -119q-157 0 -212 129q-18 42 -18 90zM244 229q0 -131 131 -131q38 0 92 19q27 10 80 37q10 7 10 12v260q-105 -6 -158 -23q-14 -4 -49 -16q-106 -36 -106 -158zM119 1137q-4 8 2 14q30 31 60 58.5t58.5 49t58.5 35t60 13.5 q25 0 52.5 -14.5t56.5 -32t55.5 -32t46.5 -14.5q31 0 64 17.5t80 56.5q8 6 14 0l35 -41q4 -8 -2 -14q-31 -33 -61.5 -60.5t-59.5 -49t-58.5 -34t-60.5 -12.5q-22 0 -50 14.5t-56.5 32t-55 31.5t-47.5 14q-33 0 -67.5 -19.5t-75.5 -53.5q-6 -6 -14 0z" />
<glyph unicode="&#xe4;" horiz-adv-x="907" d="M61 190q0 169 172 248q52 24 106 35q120 25 218 33v158q0 159 -156 159q-89 0 -155 -32q-6 -5 -10 -17l-29 -151q0 -9 -10 -9h-64q-10 0 -10 9v227q0 6 10 10q162 58 307 58q205 0 266 -123q23 -46 23 -117v-553q0 -8 8 -12l129 -37q10 -6 11 -10v-35q-4 -11 -9 -11 l-270 -36q-10 0 -10 10l-17 96q-129 -119 -280 -119q-157 0 -212 129q-18 42 -18 90zM244 229q0 -131 131 -131q38 0 92 19q27 10 80 37q10 7 10 12v260q-105 -6 -158 -23q-14 -4 -49 -16q-106 -36 -106 -158zM145 1192q0 20 8.5 38.5t21.5 33t31.5 22.5t41.5 8 q20 0 39.5 -8t33 -22.5t21.5 -33t8 -38.5q0 -21 -8 -39t-21.5 -31.5t-33 -21.5t-39.5 -8q-23 0 -41.5 8t-31.5 21.5t-21.5 31.5t-8.5 39zM502 1192q0 20 8 38.5t21.5 33t33 22.5t39.5 8q23 0 41.5 -8t31.5 -22.5t21.5 -33t8.5 -38.5q0 -21 -8.5 -39t-21.5 -31.5t-31.5 -21.5 t-41.5 -8q-20 0 -39.5 8t-33 21.5t-21.5 31.5t-8 39z" />
<glyph unicode="&#xe5;" horiz-adv-x="907" d="M61 190q0 169 172 248q52 24 106 35q120 25 218 33v158q0 159 -156 159q-89 0 -155 -32q-6 -5 -10 -17l-29 -151q0 -9 -10 -9h-64q-10 0 -10 9v227q0 6 10 10q162 58 307 58q205 0 266 -123q23 -46 23 -117v-553q0 -8 8 -12l129 -37q10 -6 11 -10v-35q-4 -11 -9 -11 l-270 -36q-10 0 -10 10l-17 96q-129 -119 -280 -119q-157 0 -212 129q-18 42 -18 90zM244 229q0 -131 131 -131q38 0 92 19q27 10 80 37q10 7 10 12v260q-105 -6 -158 -23q-14 -4 -49 -16q-106 -36 -106 -158zM219 1200q0 35 16.5 64.5t45 52t65.5 36t80 13.5t81 -13.5 t65.5 -36t45 -52t17.5 -64.5t-17.5 -64.5t-45 -52t-65.5 -35t-81 -12.5t-80 12.5t-65.5 35t-45 52t-16.5 64.5zM328 1200q0 -43 26.5 -71.5t71.5 -28.5t72.5 28.5t27.5 71.5t-27.5 73t-72.5 30t-71.5 -30t-26.5 -73z" />
<glyph unicode="&#xe6;" horiz-adv-x="1360" d="M61 190q0 50 12.5 88.5t35 70.5t54.5 54.5t70 40.5q19 9 42.5 18t58.5 19.5t86 18.5t125 16v148q0 51 -14.5 82.5t-37 48t-50 22.5t-54.5 6q-33 0 -69.5 -7t-73.5 -25q-6 -5 -10 -17l-29 -151q0 -5 -3 -7t-7 -2h-64q-10 0 -10 9v227q0 6 10 10q33 10 69 21.5t73.5 18.5 t75.5 12.5t77 5.5q41 0 80 -5.5t72.5 -18.5t60.5 -35.5t45 -55.5q57 55 125 85t133 30q74 0 135.5 -24t105.5 -71t68.5 -117.5t24.5 -164.5q0 -17 -1 -33t-3 -33q0 -4 -2 -7t-8 -3l-547 -19q4 -75 25.5 -140.5t59.5 -115t92 -77t124 -27.5q20 0 44.5 4t53.5 12.5t56.5 20.5 t54.5 29q8 6 12 -5l29 -49q4 -8 -6 -14q-80 -53 -164 -83t-160 -30q-88 0 -170 38t-139 106q-39 -31 -81 -56.5t-86 -45t-88 -31t-87 -11.5q-47 0 -89 15.5t-73 44t-47.5 69.5t-16.5 90zM244 229q0 -61 33.5 -97t97.5 -36q14 0 34.5 4t43 11.5t45 16.5t37.5 19q6 5 8 7t2 6 v274q-33 -2 -57.5 -5t-47 -9t-44 -13.5t-46 -15.5t-45 -25.5t-34 -39t-20.5 -47t-7 -50.5zM717 526l377 19q2 61 -8.5 112.5t-31 89t-53 59t-79.5 21.5q-52 0 -89.5 -25.5t-62.5 -66.5t-38 -95t-15 -114z" />
<glyph unicode="&#xe7;" horiz-adv-x="913" d="M66 416q0 110 37.5 203.5t101 160t148.5 102.5t182 36q65 0 133.5 -11.5t134.5 -36.5q10 -4 10 -10v-237q0 -9 -10 -9h-64q-4 0 -7 2t-3 7l-33 155q0 6 -8 13q-43 20 -83 30t-77 10q-61 0 -113.5 -26.5t-89 -72.5t-57 -108.5t-20.5 -134.5q0 -81 19.5 -155t59.5 -129 t101 -87t145 -32q64 0 123.5 20.5t108.5 53.5q6 4 8 2t4 -6l29 -50q4 -8 -6 -14q-72 -51 -147 -84t-165 -37l-10 -69q66 -13 98.5 -56t32.5 -92q0 -51 -26.5 -89t-67.5 -63.5t-89 -39t-91 -13.5h-17q-14 0 -28 5q-2 0 -5 4t-1 8l10 49q0 2 4 5t6 3q29 0 58.5 4t54 16.5 t40 33t15.5 51.5q0 18 -8 35.5t-24.5 28.5t-38 17.5t-46.5 4.5q-4 0 -7 2t1 10l70 145q-90 6 -163 40t-124 92.5t-78.5 137t-27.5 175.5z" />
<glyph unicode="&#xe8;" horiz-adv-x="940" d="M66 416q0 206 110 347q120 155 320 155q177 0 269 -101q89 -98 89 -276q0 -32 -4 -66q0 -10 -10 -10h-590q4 -167 78 -266q85 -113 245 -113q128 0 240 70q4 4 7 2q2 -3 5 -6l29 -50q2 -9 -6 -14q-175 -117 -354 -117q-200 0 -315 124q-113 120 -113 321zM252 545h418v24 q0 258 -193 258q-160 0 -207 -178q-14 -53 -18 -104zM219 1366q0 12 9 12h168q11 0 16 -12l148 -348q6 -14 -11 -14h-55q-5 1 -8 4l-266 354q-1 2 -1 4z" />
<glyph unicode="&#xe9;" horiz-adv-x="940" d="M66 416q0 206 110 347q120 155 320 155q177 0 269 -101q89 -98 89 -276q0 -32 -4 -66q0 -10 -10 -10h-590q4 -167 78 -266q85 -113 245 -113q128 0 240 70q4 4 7 2q2 -3 5 -6l29 -50q2 -9 -6 -14q-175 -117 -354 -117q-200 0 -315 124q-113 120 -113 321zM252 545h418v24 q0 258 -193 258q-160 0 -207 -178q-14 -53 -18 -104zM427 1018l148 348q4 8 7 10t9 2h168q6 0 8 -6t0 -10l-266 -354q-4 -4 -8 -4h-55q-4 0 -8.5 5t-2.5 9z" />
<glyph unicode="&#xea;" horiz-adv-x="940" d="M66 416q0 206 110 347q120 155 320 155q177 0 269 -101q89 -98 89 -276q0 -32 -4 -66q0 -10 -10 -10h-590q4 -167 78 -266q85 -113 245 -113q128 0 240 70q4 4 7 2q2 -3 5 -6l29 -50q2 -9 -6 -14q-175 -117 -354 -117q-200 0 -315 124q-113 120 -113 321zM252 545h418v24 q0 258 -193 258q-160 0 -207 -178q-14 -53 -18 -104zM240 1009q-2 5 0 9l174 354q2 6 8 6h148q6 0 8 -6l174 -354q2 -4 0 -9t-8 -5h-58q-2 0 -6 4l-182 219h-4l-182 -219q-4 -4 -6 -4h-58q-6 0 -8 5z" />
<glyph unicode="&#xeb;" horiz-adv-x="940" d="M66 416q0 206 110 347q120 155 320 155q177 0 269 -101q89 -98 89 -276q0 -32 -4 -66q0 -10 -10 -10h-590q4 -167 78 -266q85 -113 245 -113q128 0 240 70q4 4 7 2q2 -3 5 -6l29 -50q2 -9 -6 -14q-175 -117 -354 -117q-200 0 -315 124q-113 120 -113 321zM252 545h418v24 q0 258 -193 258q-160 0 -207 -178q-14 -53 -18 -104zM207 1192q0 20 8.5 38.5t21.5 33t31.5 22.5t41.5 8q20 0 39.5 -8t33 -22.5t21.5 -33t8 -38.5q0 -21 -8 -39t-21.5 -31.5t-33 -21.5t-39.5 -8q-23 0 -41.5 8t-31.5 21.5t-21.5 31.5t-8.5 39zM564 1192q0 20 8 38.5 t21.5 33t33 22.5t39.5 8q23 0 41.5 -8t31.5 -22.5t21.5 -33t8.5 -38.5q0 -21 -8.5 -39t-21.5 -31.5t-31.5 -21.5t-41.5 -8q-20 0 -39.5 8t-33 21.5t-21.5 31.5t-8 39z" />
<glyph unicode="&#xec;" horiz-adv-x="592" d="M55 809v47q0 2 2 6t6 4l246 41q8 2 13 2h8h49q10 0 10 -10v-803q0 -10 10 -10l133 -14q11 0 11 -11v-51q0 -10 -11 -10h-462q-11 0 -11 10v51q0 11 11 11l143 14q10 0 10 10v676q0 10 -10 10l-147 17q-11 0 -11 10zM13 1366q0 12 9 12h168q11 0 16 -12l148 -348 q6 -14 -11 -14h-55q-5 1 -8 4l-266 354q-1 2 -1 4z" />
<glyph unicode="&#xed;" horiz-adv-x="592" d="M55 809v47q0 2 2 6t6 4l246 41q8 2 13 2h8h49q10 0 10 -10v-803q0 -10 10 -10l133 -14q11 0 11 -11v-51q0 -10 -11 -10h-462q-11 0 -11 10v51q0 11 11 11l143 14q10 0 10 10v676q0 10 -10 10l-147 17q-11 0 -11 10zM218 1018l148 348q4 8 7 10t9 2h168q6 0 8 -6t0 -10 l-266 -354q-4 -4 -8 -4h-55q-4 0 -8.5 5t-2.5 9z" />
<glyph unicode="&#xee;" horiz-adv-x="592" d="M55 809v47q0 2 2 6t6 4l246 41q8 2 13 2h8h49q10 0 10 -10v-803q0 -10 10 -10l133 -14q11 0 11 -11v-51q0 -10 -11 -10h-462q-11 0 -11 10v51q0 11 11 11l143 14q10 0 10 10v676q0 10 -10 10l-147 17q-11 0 -11 10zM31 1009q-2 5 0 9l174 354q2 6 8 6h148q6 0 8 -6 l174 -354q2 -4 0 -9t-8 -5h-58q-2 0 -6 4l-182 219h-4l-182 -219q-4 -4 -6 -4h-58q-6 0 -8 5z" />
<glyph unicode="&#xef;" horiz-adv-x="592" d="M55 809v47q0 2 2 6t6 4l246 41q8 2 13 2h8h49q10 0 10 -10v-803q0 -10 10 -10l133 -14q11 0 11 -11v-51q0 -10 -11 -10h-462q-11 0 -11 10v51q0 11 11 11l143 14q10 0 10 10v676q0 10 -10 10l-147 17q-11 0 -11 10zM6 1192q0 20 8.5 38.5t21.5 33t31.5 22.5t41.5 8 q20 0 39.5 -8t33 -22.5t21.5 -33t8 -38.5q0 -21 -8 -39t-21.5 -31.5t-33 -21.5t-39.5 -8q-23 0 -41.5 8t-31.5 21.5t-21.5 31.5t-8.5 39zM363 1192q0 20 8 38.5t21.5 33t33 22.5t39.5 8q23 0 41.5 -8t31.5 -22.5t21.5 -33t8.5 -38.5q0 -21 -8.5 -39t-21.5 -31.5t-31.5 -21.5 t-41.5 -8q-20 0 -39.5 8t-33 21.5t-21.5 31.5t-8 39z" />
<glyph unicode="&#xf0;" d="M66 438q0 109 33.5 197t95 151.5t143.5 97.5t180 34q21 0 47.5 -4.5t53 -12.5t52 -21.5t46.5 -29.5q-23 78 -66 156.5t-102 150.5l-207 -139q-2 -2 -6 -1t-8 3l-39 59q-2 2 -1 7.5t3 7.5l194 133q-43 45 -92 86t-102 78q-2 2 -2 6t2 6l33 47q4 4 8 3t8 -3 q53 -23 114.5 -68t118.5 -96l193 131q6 6 14 -2l43 -59q6 -6 -2 -15l-178 -122q68 -74 125 -159t99 -178.5t66.5 -194.5t24.5 -210q0 -102 -28.5 -194.5t-85 -161t-141.5 -109.5t-195 -41q-109 0 -190.5 34t-138 96.5t-85 147.5t-28.5 189zM252 485q0 -79 15.5 -155 t49 -136.5t87 -97.5t128.5 -37q66 0 111 30t73.5 78t41 110.5t12.5 128.5q0 75 -14.5 152t-47 136.5t-86 97t-130.5 37.5q-66 0 -112 -30.5t-75 -78.5t-41 -109.5t-12 -125.5z" />
<glyph unicode="&#xf1;" horiz-adv-x="1159" d="M55 809v47q0 10 8 10l246 41q11 2 13 2h57q10 0 10 -10v-88q92 73 226 102q41 9 90 9q264 0 264 -297v-529q0 -10 10 -10l133 -14q10 0 10 -11v-51q0 -10 -10 -10h-448q-11 0 -11 10v51q0 11 11 11l129 14q10 0 10 10v469q0 110 -39 162q-45 59 -152 59q-121 0 -213 -47 q-8 -4 -10 -8v-635q0 -10 10 -10l129 -14q11 0 11 -11v-51q0 -10 -11 -10h-458q-11 0 -11 10v51q0 11 11 11l143 14q10 0 10 10v676q0 10 -10 10l-147 17q-11 0 -11 10zM271 1137q-4 8 2 14q30 31 60 58.5t58.5 49t58.5 35t60 13.5q25 0 52.5 -14.5t56.5 -32t55.5 -32 t46.5 -14.5q31 0 64 17.5t80 56.5q8 6 14 0l35 -41q4 -8 -2 -14q-31 -33 -61.5 -60.5t-59.5 -49t-58.5 -34t-60.5 -12.5q-22 0 -50 14.5t-56.5 32t-55 31.5t-47.5 14q-33 0 -67.5 -19.5t-75.5 -53.5q-6 -6 -14 0z" />
<glyph unicode="&#xf2;" horiz-adv-x="1040" d="M66 438q0 212 123 344q127 136 337 136q216 0 334 -126q115 -123 115 -341q0 -209 -124 -343q-128 -137 -335 -137q-214 0 -333 128q-117 124 -117 339zM252 485q0 -287 154 -389q56 -37 135 -37q247 0 247 347q0 171 -58 281q-74 142 -230 142q-133 0 -197 -112 q-51 -89 -51 -232zM247 1366q0 12 9 12h168q11 0 16 -12l148 -348q6 -14 -11 -14h-55q-5 1 -8 4l-266 354q-1 2 -1 4z" />
<glyph unicode="&#xf3;" horiz-adv-x="1040" d="M66 438q0 212 123 344q127 136 337 136q216 0 334 -126q115 -123 115 -341q0 -209 -124 -343q-128 -137 -335 -137q-214 0 -333 128q-117 124 -117 339zM252 485q0 -287 154 -389q56 -37 135 -37q247 0 247 347q0 171 -58 281q-74 142 -230 142q-133 0 -197 -112 q-51 -89 -51 -232zM452 1018l148 348q4 8 7 10t9 2h168q6 0 8 -6t0 -10l-266 -354q-4 -4 -8 -4h-55q-4 0 -8.5 5t-2.5 9z" />
<glyph unicode="&#xf4;" horiz-adv-x="1040" d="M66 438q0 212 123 344q127 136 337 136q216 0 334 -126q115 -123 115 -341q0 -209 -124 -343q-128 -137 -335 -137q-214 0 -333 128q-117 124 -117 339zM252 485q0 -287 154 -389q56 -37 135 -37q247 0 247 347q0 171 -58 281q-74 142 -230 142q-133 0 -197 -112 q-51 -89 -51 -232zM264 1009q-2 5 0 9l174 354q2 6 8 6h148q6 0 8 -6l174 -354q2 -4 0 -9t-8 -5h-58q-2 0 -6 4l-182 219h-4l-182 -219q-4 -4 -6 -4h-58q-6 0 -8 5z" />
<glyph unicode="&#xf5;" horiz-adv-x="1040" d="M66 438q0 212 123 344q127 136 337 136q216 0 334 -126q115 -123 115 -341q0 -209 -124 -343q-128 -137 -335 -137q-214 0 -333 128q-117 124 -117 339zM252 485q0 -287 154 -389q56 -37 135 -37q247 0 247 347q0 171 -58 281q-74 142 -230 142q-133 0 -197 -112 q-51 -89 -51 -232zM209 1137q-4 8 2 14q30 31 60 58.5t58.5 49t58.5 35t60 13.5q25 0 52.5 -14.5t56.5 -32t55.5 -32t46.5 -14.5q31 0 64 17.5t80 56.5q8 6 14 0l35 -41q4 -8 -2 -14q-31 -33 -61.5 -60.5t-59.5 -49t-58.5 -34t-60.5 -12.5q-22 0 -50 14.5t-56.5 32t-55 31.5 t-47.5 14q-33 0 -67.5 -19.5t-75.5 -53.5q-6 -6 -14 0z" />
<glyph unicode="&#xf6;" horiz-adv-x="1040" d="M66 438q0 212 123 344q127 136 337 136q216 0 334 -126q115 -123 115 -341q0 -209 -124 -343q-128 -137 -335 -137q-214 0 -333 128q-117 124 -117 339zM252 485q0 -287 154 -389q56 -37 135 -37q247 0 247 347q0 171 -58 281q-74 142 -230 142q-133 0 -197 -112 q-51 -89 -51 -232zM239 1192q0 20 8.5 38.5t21.5 33t31.5 22.5t41.5 8q20 0 39.5 -8t33 -22.5t21.5 -33t8 -38.5q0 -21 -8 -39t-21.5 -31.5t-33 -21.5t-39.5 -8q-23 0 -41.5 8t-31.5 21.5t-21.5 31.5t-8.5 39zM596 1192q0 20 8 38.5t21.5 33t33 22.5t39.5 8q23 0 41.5 -8 t31.5 -22.5t21.5 -33t8.5 -38.5q0 -21 -8.5 -39t-21.5 -31.5t-31.5 -21.5t-41.5 -8q-20 0 -39.5 8t-33 21.5t-21.5 31.5t-8 39z" />
<glyph unicode="&#xf7;" d="M61 434v74q-4 -2 1.5 4t9.5 6h880q11 0 11 -10v-74q0 -10 -11 -10h-880q-11 0 -11 10zM408 143q0 23 8 42.5t22.5 33.5t34 22.5t39.5 8.5t39.5 -8.5t34 -22.5t23.5 -33.5t9 -42.5q0 -20 -9 -39.5t-23.5 -34t-34 -22.5t-39.5 -8t-39.5 8t-34 22.5t-22.5 34t-8 39.5z M408 797q0 20 8 39.5t22.5 35t34 23.5t39.5 8t39.5 -8t34 -23.5t23.5 -35t9 -39.5q0 -23 -9 -41.5t-23.5 -32.5t-34 -22.5t-39.5 -8.5t-39.5 8.5t-34 22.5t-22.5 32.5t-8 41.5z" />
<glyph unicode="&#xf8;" horiz-adv-x="1040" d="M57 23q0 6 4 8l95 98q-45 59 -67.5 137t-22.5 172q0 109 33.5 197t95 151.5t145.5 97.5t186 34q95 0 168.5 -24t128.5 -69l90 97q9 8 15 2l51 -50q6 -8 0 -14l-94 -100q45 -60 67.5 -138.5t22.5 -170.5q0 -109 -34 -197t-95.5 -150.5t-145.5 -97.5t-184 -35 q-94 0 -168 22.5t-129 67.5l-88 -92q-6 -8 -14 0l-56 47q-4 2 -4 7zM252 485q0 -59 8 -114.5t25 -106.5l430 449q-33 53 -86.5 84.5t-128.5 31.5q-72 0 -119 -30.5t-76 -78.5t-41 -109.5t-12 -125.5zM328 174q34 -53 86.5 -84t126.5 -31q69 0 117.5 30t77 78t40.5 110.5 t12 128.5q0 57 -8 112t-24 107z" />
<glyph unicode="&#xf9;" horiz-adv-x="1108" d="M0 809v47q0 10 8 10l246 41q3 1 10 2h60q10 0 10 -10v-602q0 -191 192 -191q99 0 203 64q10 6 10 12v590q0 10 -10 10l-147 17q-11 0 -11 10v47q0 10 9 10l245 41q4 1 13 2h57q10 0 10 -10v-801q0 -10 10 -10l148 -16q10 0 10 -11v-47q0 -9 -8 -10l-305 -20q-9 -1 -10 10 l-7 102q-146 -125 -307 -125q-117 0 -191 68q-77 70 -77 186v547q0 10 -10 10l-148 17q-10 0 -10 10zM249 1366q0 12 9 12h168q11 0 16 -12l148 -348q6 -14 -11 -14h-55q-5 1 -8 4l-266 354q-1 2 -1 4z" />
<glyph unicode="&#xfa;" horiz-adv-x="1108" d="M0 809v47q0 10 8 10l246 41q3 1 10 2h60q10 0 10 -10v-602q0 -191 192 -191q99 0 203 64q10 6 10 12v590q0 10 -10 10l-147 17q-11 0 -11 10v47q0 10 9 10l245 41q4 1 13 2h57q10 0 10 -10v-801q0 -10 10 -10l148 -16q10 0 10 -11v-47q0 -9 -8 -10l-305 -20q-9 -1 -10 10 l-7 102q-146 -125 -307 -125q-117 0 -191 68q-77 70 -77 186v547q0 10 -10 10l-148 17q-10 0 -10 10zM455 1018l148 348q4 8 7 10t9 2h168q6 0 8 -6t0 -10l-266 -354q-4 -4 -8 -4h-55q-4 0 -8.5 5t-2.5 9z" />
<glyph unicode="&#xfb;" horiz-adv-x="1108" d="M0 809v47q0 10 8 10l246 41q3 1 10 2h60q10 0 10 -10v-602q0 -191 192 -191q99 0 203 64q10 6 10 12v590q0 10 -10 10l-147 17q-11 0 -11 10v47q0 10 9 10l245 41q4 1 13 2h57q10 0 10 -10v-801q0 -10 10 -10l148 -16q10 0 10 -11v-47q0 -9 -8 -10l-305 -20q-9 -1 -10 10 l-7 102q-146 -125 -307 -125q-117 0 -191 68q-77 70 -77 186v547q0 10 -10 10l-148 17q-10 0 -10 10zM266 1009q-2 5 0 9l174 354q2 6 8 6h148q6 0 8 -6l174 -354q2 -4 0 -9t-8 -5h-58q-2 0 -6 4l-182 219h-4l-182 -219q-4 -4 -6 -4h-58q-6 0 -8 5z" />
<glyph unicode="&#xfc;" horiz-adv-x="1108" d="M0 809v47q0 10 8 10l246 41q3 1 10 2h60q10 0 10 -10v-602q0 -191 192 -191q99 0 203 64q10 6 10 12v590q0 10 -10 10l-147 17q-11 0 -11 10v47q0 10 9 10l245 41q4 1 13 2h57q10 0 10 -10v-801q0 -10 10 -10l148 -16q10 0 10 -11v-47q0 -9 -8 -10l-305 -20q-9 -1 -10 10 l-7 102q-146 -125 -307 -125q-117 0 -191 68q-77 70 -77 186v547q0 10 -10 10l-148 17q-10 0 -10 10zM242 1192q0 20 8.5 38.5t21.5 33t31.5 22.5t41.5 8q20 0 39.5 -8t33 -22.5t21.5 -33t8 -38.5q0 -21 -8 -39t-21.5 -31.5t-33 -21.5t-39.5 -8q-23 0 -41.5 8t-31.5 21.5 t-21.5 31.5t-8.5 39zM599 1192q0 20 8 38.5t21.5 33t33 22.5t39.5 8q23 0 41.5 -8t31.5 -22.5t21.5 -33t8.5 -38.5q0 -21 -8.5 -39t-21.5 -31.5t-31.5 -21.5t-41.5 -8q-20 0 -39.5 8t-33 21.5t-21.5 31.5t-8 39z" />
<glyph unicode="&#xfd;" horiz-adv-x="1061" d="M8 827v52q0 10 10 10h426q11 0 11 -10v-52q0 -8 -9 -8l-106 -12q-14 0 -8 -14l241 -584l248 584q6 14 -8 14l-106 12q-9 0 -9 8v52q0 10 11 10h329q11 0 11 -10v-50q0 -10 -11 -10l-112 -12q-5 -1 -8 -6l-367 -864q-198 -465 -344 -465q-6 0 -14 4l-97 96q-7 7 -2 14 l25 41q4 4 10 4q97 0 158 45q48 36 104 130q35 58 86 176q4 9 0 26l-334 791q-4 6 -8 6l-119 14q-8 0 -8 8zM495 1018l148 348q4 8 7 10t9 2h168q6 0 8 -6t0 -10l-266 -354q-4 -4 -8 -4h-55q-4 0 -8.5 5t-2.5 9z" />
<glyph unicode="&#xfe;" horiz-adv-x="1069" d="M9 1346v47q0 4 2 7t7 3l258 41q6 2 10 2h6h53q10 0 10 -10v-633q25 22 59 42.5t70.5 37t78.5 26t87 9.5q84 0 149.5 -35t111 -94.5t69 -135t23.5 -155.5q0 -109 -35 -204t-99.5 -167t-156.5 -114t-207 -42q-74 0 -150 17v-394q0 -10 11 -10l157 -14q11 0 11 -10v-52 q0 -10 -11 -10h-487q-10 0 -10 10v52q0 10 10 10l143 14q11 0 11 10v1715q0 10 -11 10l-159 16q-11 0 -11 11zM355 109q9 -9 26.5 -17t40 -15t48 -10.5t51.5 -3.5q72 0 127.5 29t93 79t57 119.5t19.5 149.5q0 66 -13 127.5t-44 109.5t-80 76.5t-119 28.5q-51 0 -102 -14 t-94 -41q-4 -2 -7.5 -4t-3.5 -8v-606z" />
<glyph unicode="&#xff;" horiz-adv-x="1061" d="M8 827v52q0 10 10 10h426q11 0 11 -10v-52q0 -8 -9 -8l-106 -12q-14 0 -8 -14l241 -584l248 584q6 14 -8 14l-106 12q-9 0 -9 8v52q0 10 11 10h329q11 0 11 -10v-50q0 -10 -11 -10l-112 -12q-5 -1 -8 -6l-367 -864q-198 -465 -344 -465q-6 0 -14 4l-97 96q-7 7 -2 14 l25 41q4 4 10 4q97 0 158 45q48 36 104 130q35 58 86 176q4 9 0 26l-334 791q-4 6 -8 6l-119 14q-8 0 -8 8zM282 1192q0 20 8.5 38.5t21.5 33t31.5 22.5t41.5 8q20 0 39.5 -8t33 -22.5t21.5 -33t8 -38.5q0 -21 -8 -39t-21.5 -31.5t-33 -21.5t-39.5 -8q-23 0 -41.5 8 t-31.5 21.5t-21.5 31.5t-8.5 39zM639 1192q0 20 8 38.5t21.5 33t33 22.5t39.5 8q23 0 41.5 -8t31.5 -22.5t21.5 -33t8.5 -38.5q0 -21 -8.5 -39t-21.5 -31.5t-31.5 -21.5t-41.5 -8q-20 0 -39.5 8t-33 21.5t-21.5 31.5t-8 39z" />
<glyph unicode="&#x131;" horiz-adv-x="592" d="M55 809v47q0 2 2 6t6 4l246 41q8 2 13 2h8h49q10 0 10 -10v-803q0 -10 10 -10l133 -14q11 0 11 -11v-51q0 -10 -11 -10h-462q-11 0 -11 10v51q0 11 11 11l143 14q10 0 10 10v676q0 10 -10 10l-147 17q-11 0 -11 10z" />
<glyph unicode="&#x152;" horiz-adv-x="2030" d="M78 682q0 154 51 286t144.5 230t223.5 154.5t285 56.5q41 0 97.5 -5t118 -10t124 -10.5t119.5 -5.5h657q11 0 11 -10v-321q0 -11 -11 -11h-75q-2 0 -6.5 2t-4.5 6l-40 232q0 4 -4.5 6t-6.5 2h-469q-10 0 -10 -10v-506q0 -10 10 -10h283q10 0 10 8l21 166q0 8 10 8h55 q10 0 10 -10v-445q0 -10 -10 -10h-55q-10 0 -10 8l-21 176q0 9 -10 9h-283q-10 0 -10 -11v-553q0 -10 10 -10h498q2 0 6 2t4 6l41 228q0 4 3 6t7 2h76q10 0 10 -10v-318q0 -10 -10 -10h-758q-32 0 -80.5 -4t-102.5 -10t-108.5 -10.5t-95.5 -4.5q-155 0 -285 54.5 t-223.5 149.5t-144.5 225t-51 282zM276 735q0 -86 16.5 -170t48.5 -158.5t78 -137t104.5 -108.5t130 -72t155.5 -26q61 0 114.5 9.5t93.5 25t63.5 36t23.5 44.5v977q0 35 -27.5 63.5t-75 51t-110 35t-133.5 12.5q-115 0 -204 -46t-150.5 -125t-94.5 -185.5t-33 -225.5z" />
<glyph unicode="&#x153;" horiz-adv-x="1542" d="M66 432q0 105 29.5 194t85 154.5t135 101.5t182.5 36q110 0 190 -43.5t129 -116.5q39 49 80 79.5t82 49t78 25t69 6.5q72 0 134.5 -24t105.5 -72t68.5 -118.5t25.5 -164.5q0 -17 -2 -33.5t-4 -32.5q0 -4 -2 -7t-8 -3h-549q2 -82 23.5 -150.5t61.5 -120t95 -79t125 -27.5 q21 0 45.5 4t52 12.5t56 20.5t55.5 29q8 6 12 -5l29 -49q2 -8 -6 -14q-80 -53 -164 -83t-160 -30q-43 0 -88 10.5t-88 31t-80 49t-63 67.5q-53 -72 -135 -115t-189 -43q-100 0 -177 36t-128 98.5t-78.5 146.5t-27.5 180zM252 481q0 -71 13.5 -146t43 -135.5t79.5 -98.5 t124 -38q57 0 97 31t62.5 80t33 110.5t10.5 123.5q0 73 -12.5 149t-41 135.5t-76.5 97t-120 37.5q-59 0 -100 -30.5t-66 -79.5t-36 -111.5t-11 -124.5zM897 543h379q2 61 -7 113.5t-30.5 90t-54.5 59t-80 21.5q-51 0 -89 -25.5t-64.5 -65.5t-40 -91t-13.5 -102z" />
<glyph unicode="&#x178;" horiz-adv-x="1382" d="M20 1315v53q0 10 11 10h544q11 0 11 -10v-53q0 -10 -11 -10l-147 -13q-6 0 -8 -6t0 -10l328 -594l342 594q2 2 2 5q0 11 -11 11l-141 13q-10 0 -10 10v53q0 10 10 10h424q10 0 10 -10v-53q0 -10 -10 -10l-154 -15q-5 -1 -8 -4l-407 -698q-2 -3 -2 -10v-478q0 -10 10 -10 l174 -16q10 0 10 -11v-53q0 -10 -10 -10h-547q-10 0 -10 10v53q0 11 10 11l174 16q10 0 10 10v467q0 8 -2 13l-399 704q-4 4 -8 4l-174 17q-11 0 -11 10zM426 1602q0 20 8 39.5t21.5 33t33 21.5t39.5 8q23 0 41.5 -8t31.5 -21.5t21.5 -33t8.5 -39.5q0 -21 -8.5 -39.5 t-21.5 -31.5t-31.5 -21.5t-41.5 -8.5q-20 0 -39.5 8.5t-33 21.5t-21.5 31.5t-8 39.5zM819 1602q0 20 8.5 39.5t21.5 33t31.5 21.5t41.5 8q20 0 39.5 -8t33 -21.5t21.5 -33t8 -39.5q0 -21 -8 -39.5t-21.5 -31.5t-33 -21.5t-39.5 -8.5q-23 0 -41.5 8.5t-31.5 21.5t-21.5 31.5 t-8.5 39.5z" />
<glyph unicode="&#x2c6;" d="M256 1009q-2 5 0 9l174 354q2 6 8 6h148q6 0 8 -6l174 -354q2 -4 0 -9t-8 -5h-58q-2 0 -6 4l-182 219h-4l-182 -219q-4 -4 -6 -4h-58q-6 0 -8 5z" />
<glyph unicode="&#x2da;" d="M305 1200q0 35 16.5 64.5t45 52t65.5 36t80 13.5t81 -13.5t65.5 -36t45 -52t17.5 -64.5t-17.5 -64.5t-45 -52t-65.5 -35t-81 -12.5t-80 12.5t-65.5 35t-45 52t-16.5 64.5zM414 1200q0 -43 26.5 -71.5t71.5 -28.5t72.5 28.5t27.5 71.5t-27.5 73t-72.5 30t-71.5 -30 t-26.5 -73z" />
<glyph unicode="&#x2dc;" d="M201 1137q-4 8 2 14q30 31 60 58.5t58.5 49t58.5 35t60 13.5q25 0 52.5 -14.5t56.5 -32t55.5 -32t46.5 -14.5q31 0 64 17.5t80 56.5q8 6 14 0l35 -41q4 -8 -2 -14q-31 -33 -61.5 -60.5t-59.5 -49t-58.5 -34t-60.5 -12.5q-22 0 -50 14.5t-56.5 32t-55 31.5t-47.5 14 q-33 0 -67.5 -19.5t-75.5 -53.5q-6 -6 -14 0z" />
<glyph unicode="&#x2000;" horiz-adv-x="886" />
<glyph unicode="&#x2001;" horiz-adv-x="1772" />
<glyph unicode="&#x2002;" horiz-adv-x="886" />
<glyph unicode="&#x2003;" horiz-adv-x="1772" />
<glyph unicode="&#x2004;" horiz-adv-x="590" />
<glyph unicode="&#x2005;" horiz-adv-x="443" />
<glyph unicode="&#x2006;" horiz-adv-x="295" />
<glyph unicode="&#x2007;" horiz-adv-x="295" />
<glyph unicode="&#x2008;" horiz-adv-x="221" />
<glyph unicode="&#x2009;" horiz-adv-x="354" />
<glyph unicode="&#x200a;" horiz-adv-x="98" />
<glyph unicode="&#x2010;" horiz-adv-x="776" d="M102 485v86q0 11 11 11h551q10 0 10 -11v-86q0 -10 -10 -10h-551q-11 0 -11 10z" />
<glyph unicode="&#x2011;" horiz-adv-x="776" d="M102 485v86q0 11 11 11h551q10 0 10 -11v-86q0 -10 -10 -10h-551q-11 0 -11 10z" />
<glyph unicode="&#x2012;" horiz-adv-x="776" d="M102 485v86q0 11 11 11h551q10 0 10 -11v-86q0 -10 -10 -10h-551q-11 0 -11 10z" />
<glyph unicode="&#x2013;" d="M0 485v86q0 11 10 11h1004q10 0 10 -11v-86q0 -10 -10 -10h-1004q-10 0 -10 10z" />
<glyph unicode="&#x2014;" horiz-adv-x="2048" d="M0 485v86q0 11 10 11h2028q10 0 10 -11v-86q0 -10 -10 -10h-2028q-10 0 -10 10z" />
<glyph unicode="&#x2018;" horiz-adv-x="463" d="M102 1182q0 55 17.5 100t49.5 82t72 62.5t83 41.5q2 0 4 -1t4 -3l18 -39q4 -8 -2 -10q-59 -33 -94 -70.5t-35 -95.5q0 -51 27.5 -85t87.5 -34q6 -8 11 -13t8 -10t5 -12.5t2 -19.5q0 -20 -8 -36.5t-20.5 -29t-27.5 -17.5t-34 -5q-28 0 -59 12.5t-54.5 37t-39 61.5 t-15.5 84z" />
<glyph unicode="&#x2019;" horiz-adv-x="463" d="M102 1358q0 43 28 65.5t63 22.5q28 0 58 -12.5t54.5 -37t39.5 -61.5t15 -84q0 -55 -18 -100t-49 -82t-71 -62.5t-83 -41.5q-2 0 -4 1t-4 3l-18 39q-4 8 2 10q59 33 94 70.5t35 95.5q0 51 -28 85t-87 34q-12 14 -19.5 23t-7.5 32z" />
<glyph unicode="&#x201a;" horiz-adv-x="463" d="M102 150q0 43 28 65.5t63 22.5q28 0 58 -12.5t54.5 -37t39.5 -61.5t15 -84q0 -53 -18 -99t-49 -82t-71 -63.5t-83 -42.5h-4q-2 0 -4 4l-18 39q-2 6 2 11q59 32 94 70t35 95q0 52 -28 85.5t-87 33.5q-12 15 -19.5 24t-7.5 32z" />
<glyph unicode="&#x201c;" horiz-adv-x="786" d="M82 1182q0 55 18.5 100t48 82t69.5 62.5t85 41.5q2 0 4 -1t4 -3l19 -39q4 -8 -2 -10q-60 -33 -94.5 -70.5t-34.5 -95.5q0 -51 27.5 -85t86.5 -34q6 -8 11.5 -13t8.5 -10t5 -12.5t2 -19.5q0 -20 -7 -36.5t-20.5 -29t-29 -17.5t-33.5 -5q-29 0 -58.5 12.5t-54 37t-40 61.5 t-15.5 84zM446 1182q0 55 17.5 100t49.5 82t72 62.5t83 41.5q2 0 4 -1t4 -3l18 -39q4 -8 -2 -10q-59 -33 -94 -70.5t-35 -95.5q0 -51 27.5 -85t87.5 -34q6 -8 11 -13t8 -10t5.5 -12.5t2.5 -19.5q0 -43 -28 -65.5t-63 -22.5q-28 0 -59 12.5t-54.5 37t-39 61.5t-15.5 84z" />
<glyph unicode="&#x201d;" horiz-adv-x="786" d="M82 1358q0 20 7 36.5t20.5 29t29 17.5t33.5 5q29 0 59.5 -12.5t54 -37t39 -61.5t15.5 -84q0 -55 -18.5 -100t-48 -82t-69.5 -62.5t-85 -41.5q-2 0 -4 1t-4 3l-19 39q-4 8 2 10q60 33 94.5 70.5t34.5 95.5q0 51 -27.5 85t-86.5 34q-13 14 -20 23t-7 32zM446 1358 q0 43 28 65.5t63 22.5q28 0 59 -12.5t54.5 -37t39 -61.5t15.5 -84q0 -55 -17.5 -100t-49.5 -82t-72 -62.5t-83 -41.5q-2 0 -4 1t-4 3l-18 39q-4 8 2 10q59 33 94 70.5t35 95.5q0 51 -28 85t-87 34q-12 14 -19.5 23t-7.5 32z" />
<glyph unicode="&#x201e;" horiz-adv-x="786" d="M82 150q0 20 7 37.5t20.5 28.5t29 16.5t33.5 5.5q28 0 59 -12.5t54.5 -37t39 -61.5t15.5 -84q0 -53 -18.5 -99t-48 -82t-69.5 -63.5t-85 -42.5h-4q-2 0 -4 4l-19 39q-4 6 2 11q60 32 94.5 70t34.5 95q0 52 -26.5 85.5t-87.5 33.5q-13 15 -20 24t-7 32zM446 150 q0 43 28 65.5t63 22.5q28 0 59 -12.5t54.5 -37t39 -61.5t15.5 -84q0 -53 -17.5 -99t-49.5 -82t-72 -63.5t-83 -42.5h-4q-2 0 -4 4l-18 39q-2 6 2 11q59 32 94 70t35 95q0 52 -28 85.5t-87 33.5q-12 15 -19.5 24t-7.5 32z" />
<glyph unicode="&#x2022;" horiz-adv-x="565" d="M102 717q0 37 14.5 69.5t39 58t57.5 41t68 15.5q36 0 69 -15.5t58.5 -41t40 -58t14.5 -69.5q0 -35 -14.5 -68t-40 -58.5t-58.5 -39.5t-69 -14q-35 0 -68 14t-57.5 39.5t-39 58.5t-14.5 68z" />
<glyph unicode="&#x2026;" horiz-adv-x="2048" d="M227 88q0 25 9.5 46.5t26 37.5t36.5 25.5t45 9.5t46.5 -9.5t37.5 -25.5t25.5 -37.5t9.5 -46.5t-9.5 -45t-25.5 -36.5t-37.5 -26t-46.5 -9.5t-45 9.5t-36.5 26t-26 36.5t-9.5 45zM907 88q0 25 9.5 46.5t25.5 37.5t36.5 25.5t45.5 9.5t46.5 -9.5t37.5 -25.5t25.5 -37.5 t9.5 -46.5t-9.5 -45t-25.5 -36.5t-37.5 -26t-46.5 -9.5t-45.5 9.5t-36.5 26t-25.5 36.5t-9.5 45zM1587 88q0 25 9.5 46.5t24.5 37.5t36.5 25.5t46.5 9.5t46.5 -9.5t37.5 -25.5t25.5 -37.5t9.5 -46.5t-9.5 -45t-25.5 -36.5t-37.5 -26t-46.5 -9.5t-46.5 9.5t-36.5 26 t-24.5 36.5t-9.5 45z" />
<glyph unicode="&#x202f;" horiz-adv-x="354" />
<glyph unicode="&#x2039;" horiz-adv-x="512" d="M57 438v33q0 4 2 6l310 326q8 8 14 0l39 -31q6 -6 4 -14l-190 -297q-5 -6 0 -12l190 -297q2 -9 -4 -15l-39 -31q-6 -8 -14 0l-310 326q-2 2 -2 6z" />
<glyph unicode="&#x203a;" horiz-adv-x="512" d="M86 152l190 297q5 6 0 12l-190 297q-2 8 4 14l39 31q6 8 14 0l310 -326q2 -2 2 -6v-33q0 -4 -2 -6l-310 -326q-8 -8 -14 0l-39 31q-6 6 -4 15z" />
<glyph unicode="&#x2044;" horiz-adv-x="205" d="M-332 14l799 1403q6 10 16 4l54 -32q10 -9 2 -15l-799 -1403q-2 -6 -6 -7t-8 1l-56 33q-10 6 -2 16z" />
<glyph unicode="&#x2215;" horiz-adv-x="205" d="M-332 14l799 1403q6 10 16 4l54 -32q10 -9 2 -15l-799 -1403q-2 -6 -6 -7t-8 1l-56 33q-10 6 -2 16z" />
<glyph unicode="&#x205f;" horiz-adv-x="443" />
<glyph unicode="&#x20ac;" d="M-16 571v66q0 10 10 10h88v51q0 27 2 52h-90q-10 0 -10 10v65q0 11 10 11h98q19 131 70 237.5t129 180t180 114.5t223 41q78 0 154 -13.5t147 -35.5q4 -2 7.5 -3t3.5 -7v-293q0 -10 -11 -10h-71q-2 0 -6.5 3t-4.5 5l-41 213q0 6 -8 10q-45 22 -89 30.5t-95 8.5 q-94 0 -167 -35t-122 -98.5t-78.5 -152.5t-38.5 -195h435q10 0 10 -11v-65q0 -10 -10 -10h-439q0 -25 1 -51.5t3 -51.5h435q10 0 10 -10v-66q0 -10 -10 -10h-426q14 -104 45.5 -194.5t82 -157t120 -105t159.5 -38.5q94 0 174 38q8 5 8 11l41 219q0 4 4.5 6t6.5 2h71 q11 0 11 -10v-297q0 -4 -3.5 -6t-7.5 -4q-75 -25 -151 -39.5t-158 -14.5q-123 0 -226.5 40t-181 117t-127 186.5t-63.5 246.5h-94q-10 0 -10 10z" />
<glyph unicode="&#x2122;" horiz-adv-x="1872" d="M41 1157v211q-4 2 0 6t10 4h660q10 0 10 -10v-211q0 -10 -10 -10h-47q-5 0 -8 2t-3 6l-26 137q0 2 -3 5t-8 3h-155q-10 0 -10 -10v-641q0 -10 8 -10l110 -12q11 0 11 -11v-45q0 -10 -11 -10h-374q-11 0 -11 10v45q0 11 9 11l108 12q10 0 10 10v641q0 10 -10 10h-158 q-4 0 -7 -3t-3 -5l-24 -137q0 -4 -4.5 -6t-6.5 -2h-47q-10 0 -10 10zM784 571v45q0 11 9 11l108 12q10 0 10 10v639q0 10 -8 10l-110 13q-9 0 -9 10v47q0 10 11 10h292q9 0 11 -6l205 -588l206 588q2 6 11 6h280q10 0 10 -10v-45q0 -10 -10 -10l-104 -10q-10 0 -10 -11v-645 q0 -8 8 -8l106 -12q10 0 10 -11v-45q0 -10 -10 -10h-352q-10 0 -10 10v45q0 11 8 11l90 10q8 0 8 10v606h-8l-240 -686q-4 -6 -10 -6h-39q-8 0 -10 6l-244 686h-8v-604q0 -10 8 -10l90 -10q9 0 9 -11v-47q0 -10 -11 -10h-286q-11 0 -11 10z" />
<glyph unicode="&#xe000;" horiz-adv-x="890" d="M0 890h890v-890h-890v890z" />
<glyph unicode="&#xfb01;" horiz-adv-x="1161" d="M37 10v51q0 11 10 11l160 14q10 0 10 10v684q-3 6 -10 6h-152q-10 0 -10 11v51q0 10 10 10l152 19q10 0 10 10v92q0 75 6 131t18.5 99t32.5 75t48 59q45 45 120.5 74t184.5 29q29 0 64 -4t71 -11t70.5 -16.5t62.5 -19.5q5 -2 7.5 -6t2.5 -7v-227q0 -8 -10 -8h-76 q-3 0 -6.5 2.5t-3.5 5.5l-29 143q-2 11 -12 17q-11 7 -28.5 13t-38.5 11t-44 8t-45 3q-64 0 -107.5 -17t-70.5 -52t-39 -88.5t-12 -125.5v-176q0 -10 10 -10h244q22 0 41 1t41 3l164 14q8 0 11.5 1t8.5 1h49q11 0 11 -10v-795q0 -10 10 -10l133 -14q10 0 10 -11v-51 q0 -10 -10 -10h-453q-10 0 -10 10v51q0 11 10 11l133 14q11 0 11 10v680q0 10 -11 10h-393q-10 0 -10 -10v-680q0 -10 10 -10l139 -14q11 0 11 -11v-51q0 -10 -11 -10h-485q-10 0 -10 10z" />
<glyph unicode="&#xfb02;" horiz-adv-x="1161" d="M37 10v51q0 11 10 11l160 14q10 0 10 10v684q-3 6 -10 6h-152q-10 0 -10 11v51q0 10 10 10l152 19q10 0 10 10v92q0 75 6 131t18.5 98.5t32.5 74.5t48 60q42 44 117.5 73.5t187.5 29.5q34 0 73.5 -6.5t79.5 -16.5l103 21q6 2 10 2h6h53q11 0 11 -10v-1340q0 -10 10 -10 l133 -14q10 0 10 -11v-51q0 -10 -10 -10h-453q-10 0 -10 10v51q0 11 10 11l133 14q11 0 11 10v690h-404q-10 0 -10 -10v-680q0 -10 10 -10l139 -14q11 0 11 -11v-51q0 -10 -11 -10h-485q-10 0 -10 10zM383 891q0 -10 10 -10h404v409q-2 5 -6 9.5t-7 7.5q-14 10 -34 18 t-43.5 13.5t-48 8.5t-46.5 3q-64 0 -107.5 -17t-70.5 -52t-39 -88.5t-12 -125.5v-176z" />
<glyph unicode="&#xfb03;" horiz-adv-x="1886" d="M1353 809v47q0 10 8 10l246 41q4 1 12 2h58q10 0 10 -10v-803q0 -10 10 -10l133 -14q11 0 11 -11v-51q0 -10 -11 -10h-462q-11 0 -11 10v51q0 11 11 11l143 14q10 0 10 10v676q0 10 -10 10l-148 17q-10 0 -10 10zM1482 1280q0 48 31.5 78.5t79.5 30.5t79 -30.5t31 -78.5 t-31 -78.5t-79 -30.5t-79.5 30.5t-31.5 78.5zM688 10v51q0 11 10 11l160 14q10 0 10 10v684q-4 6 -10 6h-152q-10 0 -10 11v51q0 10 10 10l152 19q10 0 10 10v92q0 258 96 360q100 107 271 107q71 0 192 -31q10 -5 10 -12v-232q0 -8 -10 -8h-63q-11 0 -11 8l-26 140 q-4 20 -57 34q-26 7 -56 7q-180 0 -180 -285v-176q0 -10 10 -10h246q10 0 10 -11v-73q0 -11 -10 -11h-246q-10 0 -10 -10v-680q0 -9 10 -10l162 -14q10 -1 10 -11v-51q0 -10 -10 -10h-508q-10 0 -10 10zM37 10v51q0 11 10 11l160 14q10 0 10 10v684q-4 6 -10 6h-152 q-10 0 -10 11v51q0 10 10 10l152 19q10 0 10 10v92q0 258 96 360q100 107 271 107q71 0 192 -31q10 -5 10 -12v-232q0 -8 -10 -8h-63q-11 0 -11 8l-26 140q-4 20 -57 34q-26 7 -56 7q-180 0 -180 -285v-176q0 -10 10 -10h246q10 0 10 -11v-73q0 -11 -10 -11h-246 q-10 0 -10 -10v-680q0 -9 10 -10l162 -14q10 -1 10 -11v-51q0 -10 -10 -10h-508q-10 0 -10 10z" />
<glyph unicode="&#xfb04;" horiz-adv-x="1888" d="M1339 10v51q0 11 10 11l160 14q10 0 10 10v1213q0 10 -10 10l-160 17q-10 0 -10 10v47q3 10 8 10l258 41q6 2 10 2h60q10 0 10 -10v-1340q0 -9 10 -10l162 -14q10 -1 10 -11v-51q0 -10 -10 -10h-508q-10 0 -10 10zM688 10v51q0 11 10 11l160 14q10 0 10 10v684 q-4 6 -10 6h-152q-10 0 -10 11v51q0 10 10 10l152 19q10 0 10 10v92q0 258 96 360q100 107 271 107q71 0 192 -31q10 -5 10 -12v-232q0 -8 -10 -8h-63q-11 0 -11 8l-26 140q-4 20 -57 34q-26 7 -56 7q-180 0 -180 -285v-176q0 -10 10 -10h246q10 0 10 -11v-73q0 -11 -10 -11 h-246q-10 0 -10 -10v-680q0 -9 10 -10l162 -14q10 -1 10 -11v-51q0 -10 -10 -10h-508q-10 0 -10 10zM37 10v51q0 11 10 11l160 14q10 0 10 10v684q-4 6 -10 6h-152q-10 0 -10 11v51q0 10 10 10l152 19q10 0 10 10v92q0 258 96 360q100 107 271 107q71 0 192 -31 q10 -5 10 -12v-232q0 -8 -10 -8h-63q-11 0 -11 8l-26 140q-4 20 -57 34q-26 7 -56 7q-180 0 -180 -285v-176q0 -10 10 -10h246q10 0 10 -11v-73q0 -11 -10 -11h-246q-10 0 -10 -10v-680q0 -9 10 -10l162 -14q10 -1 10 -11v-51q0 -10 -10 -10h-508q-10 0 -10 10z" />
<glyph d="M225 1554q-6 11 2 17q62 65 120.5 107t113.5 42q24 0 49 -11t49.5 -26.5t48 -26.5t43.5 -11q37 0 70 18t72 53q10 6 14 0l35 -41q6 -8 0 -14q-64 -68 -122 -110t-114 -42q-22 0 -46.5 12.5t-49.5 26t-49.5 25.5t-44.5 12q-31 0 -64 -14.5t-76 -54.5q-4 -5 -9 -7t-7 4z " />
<glyph d="M213 1602q0 20 8 39.5t21.5 33t33 21.5t39.5 8q23 0 41.5 -8t31.5 -21.5t21.5 -33t8.5 -39.5q0 -21 -8.5 -39.5t-21.5 -31.5t-31.5 -21.5t-41.5 -8.5q-20 0 -39.5 8.5t-33 21.5t-21.5 31.5t-8 39.5zM606 1602q0 20 8.5 39.5t21.5 33t31.5 21.5t41.5 8q20 0 39.5 -8 t33 -21.5t21.5 -33t8 -39.5q0 -21 -8 -39.5t-21.5 -31.5t-33 -21.5t-39.5 -8.5q-23 0 -41.5 8.5t-31.5 21.5t-21.5 31.5t-8.5 39.5z" />
<glyph d="M446.5 1480q-2.5 5 2.5 9l145 272q8 11 20 11h179q6 0 9 -6.5t-3 -10.5l-262 -272q-5 -2 -11 -5t-10 -3h-61q-6 0 -8.5 5z" />
<glyph d="M222 1765.5q3 6.5 9 6.5h179q12 0 20 -11l145 -272q5 -4 2.5 -9t-8.5 -5h-61q-4 0 -10 3t-11 5l-262 272q-6 4 -3 10.5z" />
<glyph d="M255 1480q-1 5 1 9l166 272q8 11 20 11h140q14 0 20 -11l166 -272q2 -4 1 -9t-7 -5h-62q-6 0 -11 3t-9 5l-168 168l-168 -168q-4 -4 -9 -6t-11 -2h-62q-6 0 -7 5z" />
<glyph horiz-adv-x="758" d="M11 791q1 2 3 4l496 598q4 2 7 3t5 1l45 -6q8 -4 8 -10v-516q0 -2 1 -5.5t5 -3.5h135q7 0 7 -4v-104q0 -4 -7 -4h-135q-6 0 -6 -8v-174q0 -11 -10 -11h-119q-10 0 -10 11v174q0 8 -8 8h-391q-7 0 -9 6l-16 35q-2 4 -1 6zM166 856h260q10 0 10 11v315z" />
</font>
</defs>
</svg>
